<?xml version="1.0" standalone="no"?>
<!DOCTYPE svg PUBLIC "-//W3C//DTD SVG 20010904//EN"
 "http://www.w3.org/TR/2001/REC-SVG-20010904/DTD/svg10.dtd">
<svg version="1.0" xmlns="http://www.w3.org/2000/svg"
 width="2520.000000pt" height="2520.000000pt" viewBox="0 0 2520.000000 2520.000000"
 preserveAspectRatio="xMidYMid meet">
<metadata>
Created by potrace 1.11, written by Peter Selinger 2001-2013
</metadata>
<g transform="translate(0.000000,2520.000000) scale(0.100000,-0.100000)"
fill="#000000" stroke="none">
<path d="M3034 15872 c-19 -18 -19 -44 -19 -2060 0 -1946 1 -2042 18 -2059 17
-17 134 -18 2577 -19 2487 -1 2560 0 2580 18 20 19 20 29 20 2062 0 1966 -1
2044 -18 2059 -17 16 -210 17 -2578 17 -2466 0 -2561 -1 -2580 -18z m2491
-101 c7 -1 11 -615 11 -1961 l0 -1960 -1203 0 c-662 0 -1203 3 -1204 8 -1 10
-1 3872 0 3897 1 20 7 20 1193 19 656 -1 1198 -2 1203 -3z m1335 0 c3 0 4 -20
3 -43 0 -24 -2 -57 -2 -75 l-1 -32 -588 0 -588 1 2 66 c1 37 2 72 3 77 1 7
201 10 584 9 320 -1 584 -2 587 -3z m1223 -1 c6 -6 9 -58 8 -112 l-1 -37 -555
0 -555 0 -1 27 c-2 63 0 112 4 119 5 8 1092 11 1100 3z m-1222 -205 c3 -40 0
-147 -5 -152 -4 -4 -1101 -8 -1162 -4 -8 1 -12 101 -5 156 1 7 203 10 586 10
383 0 585 -3 586 -10z m1230 -50 c1 -64 -1 -98 -6 -104 -2 -2 -252 -4 -555 -5
l-550 -1 -1 28 c-1 35 -1 125 0 135 1 4 251 7 556 7 l555 0 1 -60z m-2171
-155 c148 5 180 4 180 0 0 -3 27 -3 60 0 33 3 60 2 60 -3 0 -4 5 -5 12 -1 8 5
214 8 293 3 10 0 191 1 274 2 25 0 48 2 53 5 4 3 8 -3 9 -13 1 -28 1 -137 0
-148 -1 -15 -1169 -15 -1174 0 -2 5 -3 42 -3 80 l1 70 45 5 c25 3 68 4 95 2
28 -1 70 -2 95 -2z m1280 0 c148 5 180 4 180 0 0 -3 27 -3 60 0 33 3 60 2 60
-3 0 -4 5 -5 12 -1 8 5 197 8 293 3 6 0 64 0 130 0 66 0 128 0 137 0 19 0 25
-34 20 -114 l-4 -51 -548 1 c-302 0 -551 3 -555 7 -6 6 -8 57 -6 135 1 24 32
31 126 25 28 -1 70 -2 95 -2z m-340 -218 c4 -2 5 -94 1 -150 -1 -10 -122 -12
-588 -10 l-588 3 -1 70 c0 39 1 75 3 81 3 8 171 10 586 9 320 -1 584 -2 587
-3z m1230 -79 l0 -83 -557 0 -558 0 2 52 c1 29 2 67 2 84 l1 31 555 0 555 0 0
-84z m-1228 -178 c0 -28 0 -66 -1 -85 l-1 -35 -585 0 c-322 0 -585 2 -586 5
-3 17 -5 147 -2 155 2 7 207 10 590 10 l586 -1 -1 -49z m1224 42 c7 -7 6 -148
-1 -156 -4 -3 -1038 -5 -1095 -2 -14 1 -18 54 -11 148 1 6 9 13 18 15 33 6
1082 2 1089 -5z m-2316 -207 c33 3 60 2 60 -2 0 -4 7 -5 15 -2 22 9 305 10
305 2 0 -4 7 -5 17 -1 14 6 69 7 91 3 10 -2 108 -1 165 2 26 2 47 -1 47 -5 0
-5 5 -5 11 -1 7 4 31 6 55 6 40 -2 146 -2 177 -1 6 0 21 0 32 0 11 -1 40 -1
65 -1 24 -1 46 -3 48 -5 4 -4 5 -99 3 -146 -1 -14 -63 -15 -586 -15 -322 0
-586 3 -586 6 -7 28 -3 148 5 159 6 7 12 9 13 4 2 -5 30 -6 63 -3z m1356 -3
c21 8 304 9 304 1 0 -4 7 -5 17 -1 14 6 69 7 91 3 10 -2 108 -1 165 2 26 2 47
-1 47 -5 0 -5 5 -5 12 -1 11 7 86 7 148 1 14 -2 40 0 58 4 17 4 34 3 37 -1 3
-4 20 -4 39 0 19 4 37 5 40 2 4 -3 6 -42 6 -87 l0 -81 -555 0 -555 0 -1 38 c0
21 -1 52 -1 68 0 17 1 36 1 43 1 9 19 14 58 16 32 1 60 4 63 7 2 3 6 1 8 -5 2
-5 10 -7 18 -4z m-264 -279 c0 -38 -1 -75 -1 -83 -1 -13 -73 -15 -589 -15
l-588 0 2 83 c1 45 2 82 3 83 1 0 265 0 588 0 l586 -1 -1 -67z m1228 -15 l0
-83 -555 0 -555 0 -1 28 c-4 112 -3 132 5 135 4 1 255 3 557 3 l549 0 0 -83z
m-1240 -132 c12 -1 15 -15 13 -73 -1 -40 -2 -78 -2 -84 -1 -13 -1170 -16
-1172 -2 -1 4 -2 41 -3 81 -1 62 1 73 17 77 14 4 1084 5 1147 1z m1238 -83 l3
-85 -557 1 -556 1 0 60 c0 33 1 71 1 85 l1 25 552 -1 553 0 3 -86z m-1228
-137 c7 -2 4 -130 -3 -138 -5 -5 -1131 -8 -1168 -4 -4 1 -4 120 0 141 1 4
1154 5 1171 1z m1230 -68 c0 -63 -3 -73 -17 -74 -77 -4 -1085 -1 -1089 4 -7 7
-9 121 -2 133 4 5 229 9 557 9 l551 0 0 -72z m-1226 -1170 l-1 -978 -589 -3
-589 -2 0 980 0 980 590 0 590 0 -1 -977z m1226 960 c0 -20 0 -1742 0 -1866
l0 -77 -556 2 -556 3 0 960 c1 528 1 968 1 978 1 16 34 17 556 17 522 0 555
-1 555 -17z"/>
<path d="M5119 14012 c-125 -55 -105 -234 29 -255 92 -15 171 74 149 166 -8
28 -44 70 -74 86 -24 12 -79 14 -104 3z"/>
<path d="M9918 15883 c-2 -5 -4 -939 -3 -2078 l0 -2070 290 0 290 0 0 2078 1
2077 -287 0 c-158 0 -289 -3 -291 -7z"/>
<path d="M12097 15883 c-3 -7 -2 -4111 2 -4139 1 -11 3150 -16 3152 -5 1 3 2
131 3 284 1 240 -1 280 -14 286 -8 4 -587 6 -1287 6 -898 -1 -1273 2 -1276 9
-1 6 -3 811 -2 1789 l0 1777 -287 0 c-158 0 -289 -3 -291 -7z"/>
<path d="M16649 14750 c0 -627 -1 -1562 -1 -2077 l-1 -938 289 0 289 0 2 2078
3 2077 -290 0 -290 0 -1 -1140z"/>
<path d="M19568 15845 c-2 -2 -24 -7 -49 -10 -52 -6 -156 -35 -214 -60 -56
-24 -159 -76 -165 -84 -3 -3 -23 -18 -45 -32 -50 -33 -163 -141 -201 -194 -16
-22 -32 -42 -35 -45 -15 -13 -79 -133 -103 -193 -56 -141 -81 -300 -75 -482 2
-54 2 -100 0 -155 -1 -29 -1 -86 -2 -135 0 -321 1 -1443 2 -1475 2 -51 2 -99
-1 -150 -2 -55 9 -190 20 -250 37 -186 139 -377 272 -510 119 -119 263 -205
423 -254 126 -39 160 -40 1035 -40 792 0 881 3 965 24 22 6 49 13 60 15 29 7
126 44 158 61 73 38 92 50 95 57 2 4 10 7 18 7 8 0 14 4 14 8 0 4 15 16 32 27
39 23 182 166 205 206 10 16 21 29 25 29 4 0 8 5 8 10 0 6 12 29 26 51 22 35
95 194 93 202 -1 1 4 20 9 42 27 100 41 244 24 254 -8 4 -499 6 -558 2 -6 -1
-14 -27 -17 -58 -12 -116 -108 -253 -215 -307 -103 -52 -97 -52 -957 -51 -855
2 -843 1 -935 52 -96 54 -175 148 -195 233 -2 8 -8 30 -14 48 -14 45 -14 2191
0 2251 24 108 98 211 194 269 105 63 73 61 983 59 l827 -2 67 -32 c74 -35 136
-86 178 -148 33 -48 70 -151 72 -201 l1 -34 290 0 290 0 -6 83 c-7 88 -9 99
-27 167 -16 59 -17 61 -25 88 -11 32 -85 186 -93 192 -4 3 -20 25 -36 50 -25
38 -160 179 -209 217 -96 75 -264 153 -382 177 -16 3 -43 9 -60 13 -32 8
-1759 16 -1767 8z"/>
<path d="M10130 10335 l0 -72 77 1 77 1 0 70 0 70 -77 1 -77 0 0 -71z"/>
<path d="M10367 10396 c-2 -6 -3 -38 -3 -71 l1 -60 77 0 77 -1 -2 71 -2 70
-72 1 c-43 0 -74 -4 -76 -10z"/>
<path d="M21399 10401 c-3 -17 -5 -117 -2 -126 2 -6 34 -10 76 -10 l72 1 3 70
3 69 -76 1 c-41 1 -75 -2 -76 -5z"/>
<path d="M21635 10401 c-3 -2 -5 -34 -5 -70 l0 -66 75 0 c43 0 76 4 76 10 6
51 3 125 -6 127 -25 4 -136 3 -140 -1z"/>
<path d="M3329 10203 c-138 -35 -212 -113 -227 -238 -13 -105 32 -190 122
-230 56 -24 155 -51 260 -71 56 -10 123 -45 134 -70 7 -13 9 -38 5 -54 -5 -30
-53 -79 -76 -81 -7 0 -21 -2 -32 -5 -105 -23 -210 9 -241 74 -9 20 -17 43 -17
50 0 9 -24 12 -88 12 l-87 0 5 -42 c11 -104 88 -186 213 -228 55 -19 82 -21
170 -18 90 3 113 8 165 33 114 55 158 120 159 235 1 98 -20 142 -93 191 -45
30 -147 65 -206 70 -5 1 -20 5 -33 10 -12 5 -34 11 -48 13 -67 13 -122 38
-135 63 -53 99 83 180 222 133 56 -19 84 -47 93 -92 l6 -28 90 0 c51 0 89 4
86 9 -3 5 -8 25 -11 46 -11 89 -100 180 -205 211 -69 20 -167 23 -231 7z"/>
<path d="M17517 10214 c-1 -1 -20 -4 -42 -7 -62 -8 -79 -13 -139 -42 -99 -47
-172 -143 -201 -267 -21 -91 -14 -258 14 -330 68 -175 190 -260 376 -262 105
-1 138 5 208 40 92 46 167 142 200 254 17 59 21 222 7 284 -16 72 -68 173
-111 216 -33 32 -106 75 -164 95 -20 7 -143 23 -148 19z m94 -165 c127 -38
194 -269 130 -441 -28 -74 -53 -104 -109 -132 -51 -24 -133 -28 -183 -8 -106
43 -167 212 -136 382 27 158 153 242 298 199z"/>
<path d="M10 9755 l0 -431 83 2 c45 1 85 2 90 3 4 0 7 81 7 179 l0 179 173 -2
c94 0 180 1 190 3 15 4 17 14 15 76 l-3 71 -180 1 c-99 1 -183 2 -187 3 -5 0
-8 44 -8 96 0 83 2 95 18 96 9 1 107 2 217 3 l200 1 1 73 c1 39 -1 73 -4 73
-4 1 -143 3 -309 4 l-303 1 0 -431z"/>
<path d="M989 10157 c-3 -205 -3 -827 1 -828 26 -7 643 -2 647 5 4 5 7 40 7
78 l1 68 -80 1 c-44 1 -84 0 -90 -1 -5 -1 -17 -2 -25 -1 -8 0 -76 0 -151 0
l-136 1 0 110 -1 110 52 1 c28 0 122 0 209 -1 121 0 157 2 158 12 2 32 -1 132
-5 135 -2 3 -96 5 -208 6 l-203 2 -1 88 c0 48 2 87 5 88 3 1 105 2 226 2 l220
2 3 78 3 77 -316 -1 -315 -1 -1 -31z"/>
<path d="M2019 10161 c-3 -170 -1 -820 4 -827 3 -6 41 -10 84 -9 l78 0 2 290
c0 160 2 297 2 305 1 8 11 -3 22 -25 12 -22 40 -71 62 -110 22 -38 51 -90 65
-115 13 -25 31 -52 38 -61 8 -8 14 -23 14 -31 0 -9 4 -18 8 -20 9 -3 132 -216
132 -227 0 -6 136 -8 177 -2 9 1 12 61 12 239 -1 130 0 242 1 247 1 6 1 24 0
40 -1 17 -3 98 -4 180 l-1 150 -82 3 -83 3 0 -297 c0 -164 -3 -294 -7 -290 -5
4 -21 32 -38 61 -28 50 -150 266 -185 326 -8 15 -37 65 -64 112 l-48 86 -94
-1 -94 0 -1 -27z"/>
<path d="M4112 10179 c-13 -5 -17 -20 -17 -77 l-1 -72 45 -1 c25 0 83 0 127 0
58 1 83 -3 86 -11 2 -7 3 -167 3 -355 l-1 -343 26 -1 c37 -1 133 -1 146 0 7 1
10 111 9 349 0 191 0 352 2 357 2 6 53 10 128 9 69 0 126 2 126 5 1 3 2 38 3
77 l1 72 -333 -2 c-183 0 -340 -4 -350 -7z"/>
<path d="M5157 10180 c-10 -4 -13 -99 -12 -427 0 -232 3 -425 7 -428 6 -6 536
-10 629 -6 13 1 16 15 16 81 l0 80 -239 0 c-204 0 -238 2 -239 15 -1 19 -1
124 0 173 l1 37 208 -2 208 -2 1 75 1 74 -52 0 c-28 1 -121 2 -206 3 l-155 2
-3 88 c-1 48 1 87 5 88 5 1 107 2 228 2 l220 2 2 73 c1 39 -2 72 -5 73 -32 4
-606 3 -615 -1z"/>
<path d="M6184 10177 c-2 -7 -3 -201 -2 -432 l3 -420 88 -1 c80 0 88 1 84 18
-3 9 -1 33 3 53 4 19 5 35 1 35 -8 0 -5 96 4 118 2 6 1 12 -3 12 -7 0 -6 89 1
97 10 9 207 5 239 -6 48 -16 61 -54 64 -187 2 -140 2 -140 116 -139 51 0 94 3
96 8 1 4 -5 18 -14 32 -12 18 -16 54 -19 138 -3 132 -19 177 -74 214 -19 13
-28 23 -21 23 24 0 77 48 95 86 23 49 30 133 15 181 -33 104 -100 156 -225
172 -109 15 -445 13 -451 -2z m423 -152 c21 -4 42 -18 58 -39 34 -45 30 -116
-9 -155 -26 -25 -31 -26 -160 -28 -128 -2 -134 -1 -139 18 -3 12 -2 32 3 45 5
13 6 25 2 28 -4 2 -6 19 -6 38 1 18 2 47 3 64 1 30 3 32 42 32 23 1 42 2 44 4
5 5 126 0 162 -7z"/>
<path d="M8930 10107 l0 -78 68 1 c37 1 95 2 129 1 l62 -1 0 -302 c0 -167 1
-326 1 -354 l0 -50 90 -1 90 -1 0 67 c0 36 1 195 1 353 0 216 3 287 12 290 7
2 65 3 130 3 l117 -1 0 77 0 78 -350 -2 -350 -2 0 -78z"/>
<path d="M9977 10182 c-2 -4 -3 -146 -2 -317 1 -277 3 -316 20 -370 22 -68 93
-149 142 -161 15 -4 34 -11 41 -17 7 -5 61 -11 120 -13 143 -4 215 18 281 84
81 81 86 111 86 482 l0 315 -92 3 -93 3 0 -43 c-3 -549 -5 -596 -26 -625 -56
-77 -178 -90 -251 -26 -36 32 -41 60 -41 253 0 102 -1 190 -2 195 -1 6 -1 28
0 50 3 48 3 136 0 150 -1 6 -3 17 -4 25 -1 12 -19 15 -88 17 -48 1 -89 -1 -91
-5z"/>
<path d="M11215 10183 c-113 -3 -149 -9 -140 -24 5 -7 7 -247 4 -409 0 -8 1
-101 2 -206 1 -105 -1 -195 -5 -202 -11 -19 25 -28 99 -26 39 1 73 2 76 3 3 1
6 76 6 167 1 91 4 168 7 172 10 9 219 4 247 -7 42 -15 59 -62 59 -158 0 -46 5
-103 11 -126 l10 -42 94 0 c51 0 96 3 100 6 3 4 -3 22 -13 40 -15 26 -20 54
-20 121 0 136 -18 193 -71 224 l-29 17 36 27 c50 36 58 47 76 108 41 139 -45
286 -180 308 -45 7 -226 10 -369 7z m298 -157 c50 -9 77 -49 77 -113 -1 -90
-36 -109 -206 -111 l-122 -1 -1 114 c-2 111 -1 114 21 117 38 5 192 1 231 -6z"/>
<path d="M12207 10182 c-16 -3 -17 -39 -17 -432 0 -333 3 -429 13 -432 10 -3
598 -2 632 1 6 1 10 35 10 81 l0 80 -80 1 c-44 1 -84 0 -90 -1 -5 -1 -30 -2
-55 -1 -25 1 -92 3 -150 4 l-105 2 0 104 c0 62 4 105 10 107 5 2 100 5 210 7
l200 2 0 72 0 73 -209 2 -210 3 -1 87 c-1 54 3 89 9 90 6 2 108 3 226 2 118 0
217 3 220 7 3 4 3 37 2 73 l-4 66 -54 0 c-30 1 -163 2 -297 3 -134 1 -251 1
-260 -1z"/>
<path d="M13229 10188 c-7 -17 -7 -863 0 -868 8 -4 95 -5 149 -1 9 1 12 69 12
304 0 302 0 302 20 277 11 -14 20 -28 20 -32 0 -4 23 -45 50 -92 28 -47 50
-89 50 -95 0 -6 5 -11 10 -11 6 0 10 -4 10 -9 0 -8 176 -319 187 -331 2 -3 45
-5 94 -6 l90 -1 -1 36 c-1 20 -1 41 0 46 4 24 2 83 -4 103 -4 12 -4 22 1 22 4
0 8 16 8 35 0 19 -4 35 -8 35 -5 0 -5 5 -2 11 9 14 9 165 0 179 -3 5 -3 10 2
10 9 0 8 82 -1 105 -3 8 -1 17 3 19 5 3 5 23 1 45 -4 22 -4 45 0 52 4 6 4 25
0 40 -5 16 -6 29 -2 29 9 0 6 75 -3 89 -7 12 -134 15 -150 3 -6 -4 -10 -114
-10 -294 0 -158 -3 -284 -7 -280 -8 8 -298 514 -298 520 0 2 -9 17 -21 33 -20
28 -23 29 -110 29 -49 0 -89 -1 -90 -2z"/>
<path d="M16051 9756 l0 -431 77 1 c42 0 83 2 90 2 9 2 12 42 12 167 0 164 0
165 23 166 103 4 189 0 219 -10 47 -16 61 -51 63 -160 1 -47 5 -104 9 -126 l7
-41 97 2 c122 2 118 1 100 22 -25 27 -31 60 -33 167 -3 118 -13 149 -61 191
l-36 31 36 22 c80 50 109 193 59 287 -64 121 -147 146 -475 143 l-188 -2 1
-431z m475 240 c37 -40 40 -123 5 -160 -32 -35 -84 -41 -276 -37 l-30 1 1 113
c1 61 2 114 3 115 0 2 62 2 136 0 134 -3 135 -3 161 -32z"/>
<path d="M18328 10183 c-4 -7 -2 -839 1 -853 0 -3 138 -6 305 -6 l303 0 0 78
1 78 -87 1 c-47 1 -90 0 -96 -1 -5 -1 -17 -1 -25 -1 -8 0 -61 0 -117 0 -91 1
-103 3 -104 19 0 9 -1 169 -1 355 l-1 337 -88 0 c-48 0 -89 -3 -91 -7z"/>
<path d="M19299 10156 c-4 -201 0 -818 5 -824 8 -7 567 -13 596 -6 12 3 14 18
12 79 l-4 75 -71 1 c-40 0 -106 0 -147 -1 -81 -1 -79 -1 -158 0 -58 1 -54 -6
-51 90 0 14 0 32 0 40 -1 8 -1 26 0 40 0 14 0 32 0 40 -1 8 -1 26 0 40 0 14 0
32 0 40 -1 8 -1 26 0 40 0 14 0 32 0 40 -1 8 -1 26 0 40 0 14 0 32 0 40 -1 8
-1 26 0 40 0 14 0 32 0 40 -1 8 -1 26 0 40 0 14 0 32 0 40 -1 8 -2 34 -2 58
l-1 43 -89 -2 -89 -2 -1 -31z"/>
<path d="M20270 9760 c0 -236 3 -431 8 -431 4 -1 141 -2 305 -3 l297 -2 1 31
c0 16 2 44 3 62 6 57 -7 64 -119 63 -55 0 -109 -1 -120 -1 -123 -1 -195 3
-194 9 1 4 1 163 0 355 l-1 347 -90 0 -90 0 0 -430z"/>
<path d="M21483 10166 c-4 -12 -8 -23 -8 -26 -1 -3 -4 -12 -7 -20 -4 -8 -29
-78 -56 -155 -28 -77 -76 -210 -107 -295 -31 -85 -61 -171 -67 -190 -6 -19
-15 -41 -20 -47 -6 -7 -8 -13 -5 -13 3 0 -1 -16 -9 -35 -25 -60 -23 -61 76
-61 l90 0 28 86 29 85 160 3 160 2 28 -84 c17 -55 33 -87 44 -90 14 -3 172 -1
178 3 1 0 -16 52 -38 114 -22 61 -42 117 -43 122 -2 6 -6 17 -9 25 -3 8 -13
35 -21 60 -8 25 -22 63 -30 85 -33 90 -119 333 -134 380 -8 28 -19 55 -24 61
-5 7 -46 11 -108 11 -92 -1 -100 -2 -107 -21z m160 -345 c26 -81 47 -153 47
-160 0 -7 -33 -11 -106 -11 -81 0 -105 3 -101 13 2 6 26 78 52 160 27 81 51
147 55 147 4 0 28 -67 53 -149z"/>
<path d="M22350 10124 c-1 -77 -1 -697 0 -760 l0 -40 228 1 228 0 67 33 c70
35 118 84 152 157 22 47 21 43 40 125 13 59 14 222 2 270 -21 79 -75 172 -120
206 -78 59 -118 67 -369 72 l-228 4 0 -68z m446 -109 c16 -10 34 -24 40 -30
82 -82 77 -358 -9 -451 -44 -48 -90 -61 -205 -60 l-97 1 0 275 0 275 35 5 c19
3 74 5 121 4 67 0 93 -5 115 -19z"/>
<path d="M23459 9802 c0 -213 -1 -404 -1 -425 0 -21 3 -41 7 -45 8 -8 645 -11
646 -3 1 8 1 112 0 133 -1 16 -21 18 -238 20 l-238 3 -1 103 c0 57 3 105 8
108 5 3 99 5 208 5 110 0 200 3 201 7 5 46 2 135 -4 139 -4 2 -99 5 -210 5
l-203 0 2 86 c1 48 3 89 3 92 1 3 101 5 223 4 123 -1 225 0 228 1 3 2 4 37 2
78 l-4 76 -314 0 -314 -1 -1 -386z"/>
<path d="M24497 10184 c-4 -4 -7 -198 -7 -431 0 -331 3 -423 13 -424 6 -1 45
-2 85 -3 71 -1 73 -1 69 22 -2 12 -1 25 4 28 4 2 5 12 2 20 -9 24 -9 344 0
344 5 0 5 5 2 11 -4 6 -7 42 -7 80 1 111 1 107 15 79 8 -14 23 -41 34 -60 12
-19 55 -96 98 -170 42 -74 80 -139 85 -145 7 -9 45 -77 86 -155 30 -55 33 -56
127 -56 l87 1 0 432 0 433 -82 0 -83 0 0 -291 c1 -160 -3 -293 -7 -295 -4 -3
-8 -1 -8 3 0 7 -109 205 -150 273 -36 59 -146 257 -148 268 -2 6 -8 12 -13 12
-5 0 -9 6 -9 14 0 10 -21 14 -93 15 -51 1 -96 -1 -100 -5z"/>
<path d="M7934 9952 c-35 -5 -94 -64 -108 -107 -12 -33 -12 -46 0 -84 19 -66
64 -102 133 -108 51 -5 60 -2 99 26 47 35 65 68 64 122 0 98 -88 168 -188 151z"/>
<path d="M14952 9933 c-84 -41 -113 -151 -60 -223 30 -41 62 -60 106 -65 55
-6 98 12 136 56 28 33 34 48 33 87 0 63 -26 112 -75 140 -47 26 -94 28 -140 5z"/>
</g>
</svg>
