<svg id="Ebene_1" data-name="Ebene 1" xmlns="http://www.w3.org/2000/svg" viewBox="0 0 200 67.74"><defs><style>.cls-1{fill:#fff;}.cls-2{fill:#a4acb1;}</style></defs><path class="cls-1" d="M136.53,48.5h1.39V39.81l5.44,8.69H145V37.74h-1.39v8.69l-5.37-8.69h-1.71Zm-12.12,0h7.92V47.21h-6.5V43.57h5.91V42.32h-5.91V39.06h6.39V37.74h-7.81Zm-10.73,0h6.86V47.21h-5.4V37.74h-1.46Zm-9.13-1a3.39,3.39,0,0,1-2.93-1.23,5,5,0,0,1-.91-3,4.84,4.84,0,0,1,1.06-3.38,3.51,3.51,0,0,1,2.72-1.15,3.4,3.4,0,0,1,2.72,1.16,4.54,4.54,0,0,1,1,3.06,5.91,5.91,0,0,1-.86,3.17,3,3,0,0,1-2.79,1.39m-.14-10.08a4.7,4.7,0,0,0-4.12,2,6.36,6.36,0,0,0-1.08,3.73,6.21,6.21,0,0,0,1.26,4,4.92,4.92,0,0,0,3.91,1.64,4.85,4.85,0,0,0,4.09-1.87,6.38,6.38,0,0,0,1.22-4,5.94,5.94,0,0,0-1.06-3.65,4.92,4.92,0,0,0-4.22-1.84M86.72,48.5h1.47v-5h5.53v5h1.47V37.74H93.72v4.44H88.19V37.74H86.72Zm-13.12,0H75V39.81l5.44,8.69h1.64V37.74H80.68v8.69l-5.37-8.69H73.6Zm-6.09,0H69V37.74H67.51Zm-12.45,0H63V47.21H56.49V43.57h5.9V42.32h-5.9V39.06h6.38V37.74H55.06Z"/><path class="cls-1" d="M165.42,19.74V21h3.63V30.5h1.47V21h3.62V19.74Zm-8.22,9.77a3.39,3.39,0,0,1-2.94-1.22,5,5,0,0,1-.9-3,4.84,4.84,0,0,1,1-3.38,3.53,3.53,0,0,1,2.73-1.15,3.39,3.39,0,0,1,2.71,1.16,4.53,4.53,0,0,1,1,3.05,5.83,5.83,0,0,1-.86,3.18,3,3,0,0,1-2.78,1.38m-.15-10.07a4.7,4.7,0,0,0-4.12,2,6.36,6.36,0,0,0-1.08,3.73,6.16,6.16,0,0,0,1.27,4,5.43,5.43,0,0,0,8-.23,6.39,6.39,0,0,0,1.23-4,6,6,0,0,0-1.07-3.66,4.94,4.94,0,0,0-4.22-1.83M140.11,30.5h4.58a3.72,3.72,0,0,0,3.12-1.26,3.05,3.05,0,0,0,.65-1.89,2.6,2.6,0,0,0-.72-1.94,3.82,3.82,0,0,0-1.24-.71,2.74,2.74,0,0,0,.86-.63,2.39,2.39,0,0,0,.58-1.67,2.58,2.58,0,0,0-.47-1.54,3.09,3.09,0,0,0-2.7-1.12h-4.66Zm1.43-1.25V25.46h2.92a4.09,4.09,0,0,1,1.49.23,1.59,1.59,0,0,1,1.06,1.6,1.93,1.93,0,0,1-.37,1.18,2.23,2.23,0,0,1-1.93.78Zm0-5V21h2.63a3.86,3.86,0,0,1,1.45.21,1.39,1.39,0,0,1,.87,1.42,1.48,1.48,0,0,1-.82,1.45,3.34,3.34,0,0,1-1.45.25ZM128,30.5H136V29.21h-6.49V25.57h5.9V24.32h-5.9V21.05h6.38V19.74H128Zm-9.47-11A4.59,4.59,0,0,0,115,21a6.19,6.19,0,0,0-1.44,4.3A5.89,5.89,0,0,0,115,29.54a4.6,4.6,0,0,0,3.23,1.24,4.79,4.79,0,0,0,2.4-.54A5.32,5.32,0,0,0,122,29.11l.35,1.39h.94V24.74h-4.72V26h3.37a3.6,3.6,0,0,1-1,2.73,3.4,3.4,0,0,1-2.37.85,3,3,0,0,1-2.69-1.21,5.4,5.4,0,0,1-.83-3.12,4.87,4.87,0,0,1,1-3.34,3.14,3.14,0,0,1,2.46-1.12,3.6,3.6,0,0,1,2,.54A2.62,2.62,0,0,1,121.63,23h1.44a3.84,3.84,0,0,0-1.93-3,5.4,5.4,0,0,0-2.58-.58m-17.66,11h1.39V21.81l5.44,8.69h1.64V19.74H108v8.69l-5.37-8.69H100.9Zm-13.17,0h1.49l1.17-3.23h4.22l1.12,3.23h1.6l-3.9-10.76H91.78Zm3.09-4.41,1.72-4.76,1.66,4.76ZM71,19.74V21h3.63V30.5h1.47V21h3.63V19.74ZM59.68,30.5h8.5V29.21H61.52L68.18,21V19.74h-8V21H66.3l-6.62,8.27ZM48.17,19.74V21h3.62V30.5h1.48V21h3.62V19.74ZM37,30.5h7.92V29.21h-6.5V25.57h5.91V24.32H38.37V21.05h6.39V19.74H37Zm-4.6-10.76H30.91v7.17a5.1,5.1,0,0,1-.22,1.85,1.5,1.5,0,0,1-1.53.8,1.57,1.57,0,0,1-1.22-.44,2,2,0,0,1-.39-1.33V27H26.18v.77A2.76,2.76,0,0,0,27,30.13a3.33,3.33,0,0,0,2.06.65A3,3,0,0,0,32,29.4a4.5,4.5,0,0,0,.4-2.11Z"/><rect class="cls-2" width="200" height="67.74" rx="12"/><path class="cls-1" d="M32.35,27.29A4.5,4.5,0,0,1,32,29.4a3,3,0,0,1-2.85,1.38A3.33,3.33,0,0,1,27,30.13a2.76,2.76,0,0,1-.86-2.34V27h1.37v.77a2,2,0,0,0,.39,1.33,1.57,1.57,0,0,0,1.22.44,1.5,1.5,0,0,0,1.53-.8,5.1,5.1,0,0,0,.22-1.85V19.74h1.44Z"/><path class="cls-1" d="M37,19.74h7.81v1.32H38.37v3.26h5.91v1.25H38.37v3.64h6.5V30.5H37Z"/><path class="cls-1" d="M56.89,19.74V21H53.27V30.5H51.79V21H48.17V19.74Z"/><path class="cls-1" d="M59.68,29.29,66.3,21H60.17V19.74h8V21l-6.66,8.22h6.66V30.5h-8.5Z"/><path class="cls-1" d="M79.72,19.74V21H76.09V30.5H74.62V21H71V19.74Z"/><path class="cls-1" d="M91.77,19.74h1.64L97.32,30.5h-1.6L94.6,27.27H90.38L89.21,30.5H87.72Zm2.42,6.35-1.66-4.76-1.72,4.76Z"/><path class="cls-1" d="M100.88,19.74h1.72L108,28.43V19.74h1.39V30.5h-1.64l-5.44-8.69V30.5h-1.4Z"/><path class="cls-1" d="M121.11,20a3.85,3.85,0,0,1,1.94,3h-1.44a2.66,2.66,0,0,0-1.07-1.72,3.64,3.64,0,0,0-2.05-.54A3.17,3.17,0,0,0,116,21.86a4.87,4.87,0,0,0-1,3.34,5.4,5.4,0,0,0,.82,3.12,3,3,0,0,0,2.69,1.21,3.36,3.36,0,0,0,2.37-.85,3.6,3.6,0,0,0,1-2.73H118.5V24.74h4.72V30.5h-.93l-.36-1.39a5.32,5.32,0,0,1-1.29,1.13,4.72,4.72,0,0,1-2.39.54A4.61,4.61,0,0,1,115,29.54a5.93,5.93,0,0,1-1.48-4.26A6.15,6.15,0,0,1,115,21a4.57,4.57,0,0,1,3.55-1.52A5.34,5.34,0,0,1,121.11,20Z"/><path class="cls-1" d="M128,19.74h7.81v1.32h-6.39v3.26h5.9v1.25h-5.9v3.64h6.5V30.5H128Z"/><path class="cls-1" d="M140.09,19.74h4.65a3.11,3.11,0,0,1,2.71,1.12,2.65,2.65,0,0,1,.47,1.54,2.44,2.44,0,0,1-.58,1.67,2.79,2.79,0,0,1-.87.63,3.61,3.61,0,0,1,1.24.71,2.56,2.56,0,0,1,.73,1.94,3,3,0,0,1-.66,1.89,3.7,3.7,0,0,1-3.12,1.26h-4.57Zm4.1,4.55a3.38,3.38,0,0,0,1.46-.26,1.47,1.47,0,0,0,.81-1.45,1.39,1.39,0,0,0-.87-1.42,3.83,3.83,0,0,0-1.45-.21h-2.62v3.34Zm.5,5a2.25,2.25,0,0,0,1.93-.78,1.92,1.92,0,0,0,.36-1.18,1.58,1.58,0,0,0-1.06-1.6,4,4,0,0,0-1.48-.23h-2.92v3.79Z"/><path class="cls-1" d="M161.24,21.28a5.94,5.94,0,0,1,1.07,3.65,6.44,6.44,0,0,1-1.22,4,4.85,4.85,0,0,1-4.1,1.87,4.91,4.91,0,0,1-3.9-1.64,6.16,6.16,0,0,1-1.27-4,6.29,6.29,0,0,1,1.09-3.73,4.69,4.69,0,0,1,4.11-2A4.9,4.9,0,0,1,161.24,21.28ZM160,28.13a5.91,5.91,0,0,0,.86-3.17,4.49,4.49,0,0,0-1-3.06,3.38,3.38,0,0,0-2.71-1.16,3.51,3.51,0,0,0-2.72,1.15,4.79,4.79,0,0,0-1.06,3.38,4.92,4.92,0,0,0,.91,3,3.39,3.39,0,0,0,2.93,1.22A3.05,3.05,0,0,0,160,28.13Z"/><path class="cls-1" d="M174.12,19.74V21h-3.63V30.5H169V21H165.4V19.74Z"/><path class="cls-1" d="M55.06,37.74h7.81v1.32H56.49v3.26h5.9v1.25h-5.9v3.64H63V48.5H55.06Z"/><path class="cls-1" d="M67.51,37.74H69V48.5H67.51Z"/><path class="cls-1" d="M73.6,37.74h1.71l5.37,8.69V37.74h1.39V48.5H80.43L75,39.81V48.5H73.6Z"/><path class="cls-1" d="M86.7,37.74h1.47v4.44H93.7V37.74h1.48V48.5H93.7v-5H88.17v5H86.7Z"/><path class="cls-1" d="M108.6,39.28a5.94,5.94,0,0,1,1.06,3.65,6.38,6.38,0,0,1-1.22,4,4.85,4.85,0,0,1-4.09,1.87,4.92,4.92,0,0,1-3.91-1.64,6.21,6.21,0,0,1-1.26-4,6.36,6.36,0,0,1,1.08-3.73,4.7,4.7,0,0,1,4.12-2A4.92,4.92,0,0,1,108.6,39.28Zm-1.29,6.85a5.91,5.91,0,0,0,.86-3.17,4.54,4.54,0,0,0-1-3.06,3.4,3.4,0,0,0-2.72-1.16,3.51,3.51,0,0,0-2.72,1.15,4.84,4.84,0,0,0-1,3.38,5,5,0,0,0,.9,3,3.39,3.39,0,0,0,2.93,1.22A3,3,0,0,0,107.31,46.13Z"/><path class="cls-1" d="M113.65,37.74h1.46v9.47h5.4V48.5h-6.86Z"/><path class="cls-1" d="M124.37,37.74h7.8v1.32h-6.38v3.26h5.9v1.25h-5.9v3.64h6.49V48.5h-7.91Z"/><path class="cls-1" d="M136.48,37.74h1.72l5.36,8.69V37.74H145V48.5h-1.64l-5.45-8.69V48.5h-1.39Z"/></svg>