<svg id="Ebene_1" data-name="Ebene 1" xmlns="http://www.w3.org/2000/svg" viewBox="0 0 109.98 86"><defs><style>.cls-1,.cls-2{fill:none;stroke:#3073a8;stroke-linecap:round;stroke-linejoin:round;}.cls-2{stroke-width:2px;}</style></defs><polyline class="cls-1" points="27.24 8.5 0.74 0.5 0.74 44 27.74 44"/><line class="cls-1" x1="27.74" y1="25.29" x2="0.95" y2="20"/><line class="cls-1" x1="14.88" y1="5" x2="14.88" y2="81.29"/><line class="cls-1" x1="28" y1="62.55" x2="0.5" y2="67.84"/><polyline class="cls-1" points="0.74 44 0.74 85.5 27.74 77.5"/><polyline class="cls-1" points="82.74 8.5 109.24 0.5 109.24 44 82.24 44"/><line class="cls-1" x1="82.24" y1="25.29" x2="109.04" y2="20"/><line class="cls-1" x1="95.1" y1="5" x2="95.1" y2="81.29"/><line class="cls-1" x1="81.98" y1="62.55" x2="109.48" y2="67.84"/><polyline class="cls-1" points="109.24 44 109.24 85.5 82.24 77.5"/><rect class="cls-2" x="32.55" y="8.38" width="44.88" height="70.71" rx="1"/><line class="cls-2" x1="54.99" y1="8.4" x2="54.99" y2="79.07"/><line class="cls-2" x1="32.57" y1="43.45" x2="77.41" y2="43.45"/></svg>