<svg id="Ebene_1" data-name="Ebene 1" xmlns="http://www.w3.org/2000/svg" viewBox="0 0 165.23 40"><defs><style>.cls-1{fill:#3073a8;}</style></defs><path class="cls-1" d="M4.33,26l.11.3a17.17,17.17,0,0,0,5.85,7.4,16.3,16.3,0,0,0,11.89,3A16.38,16.38,0,0,0,32,31.81a16.41,16.41,0,0,0,4.72-14,15.92,15.92,0,0,0-5-9.83,16.31,16.31,0,0,0-14.6-4.48A16.63,16.63,0,0,0,7.49,8.89a17.08,17.08,0,0,0-3.93,8.38,9.4,9.4,0,0,0,.5,5.92,8.16,8.16,0,0,0,8,5,8.28,8.28,0,0,0,8-7.23l.15-1H32.25a14.43,14.43,0,0,1-2,6.73,14.06,14.06,0,0,1-7.13,6.29A14.82,14.82,0,0,1,4.33,26M0,19.8A21,21,0,0,1,6.33,5.46,19.47,19.47,0,0,1,15.63.58C20.94-.77,25.82.32,30.46,3c5.31,3.09,8.06,7.88,9.24,13.74,1,4.87-.21,9.32-2.61,13.56-3,5.24-7.65,8-13.4,9.25-6.15,1.31-11.5-.54-16.36-4.19A18.18,18.18,0,0,1,1,25.73,22.12,22.12,0,0,1,0,19.8"/><path class="cls-1" d="M127.78,21.86h7.31l-3.63-10.93-.11,0c-1.18,3.62-2.37,7.24-3.57,10.91m-12.6,8.28h.89c1.73,0,3.46,0,5.19,0a.46.46,0,0,0,.52-.39Q125.34,19,128.9,8.26a2.73,2.73,0,0,1,2.07-2,2.56,2.56,0,0,1,3,1.73q2.73,8.26,5.44,16.51c.74,2.24,1.48,4.47,2.2,6.71a2.55,2.55,0,0,1,.17.93,1.48,1.48,0,0,1-1.39,1.47,1.71,1.71,0,0,1-1.76-1.21c-.45-1.29-.87-2.59-1.3-3.88-.34-1-.69-2.06-1-3.1-.09-.28-.22-.35-.51-.35-2.9,0-5.81,0-8.71,0a.45.45,0,0,0-.52.38q-1,3.24-2.09,6.48a1.72,1.72,0,0,1-1.84,1.38q-4.42,0-8.85,0A1.62,1.62,0,0,1,112,31.48q0-6.89,0-13.77,0-4.73,0-9.46a1.61,1.61,0,0,1,3.18-.49,4.25,4.25,0,0,1,.05.8V30.14Z"/><path class="cls-1" d="M69.28,21.87h-7.4a4.87,4.87,0,0,1-.54,0,1.61,1.61,0,0,1,.09-3.2h.42c2.95,0,5.89,0,8.84,0a3.15,3.15,0,0,1,1.17.25,1.27,1.27,0,0,1,.82,1.37,14.85,14.85,0,0,1-3.27,8.66,12.85,12.85,0,0,1-7.92,4.5,13.47,13.47,0,0,1-11.56-3.27,12.65,12.65,0,0,1-4.56-9.77c0-5.53,2.38-9.85,7.45-12.47a13.45,13.45,0,0,1,6.54-1.69A14,14,0,0,1,65.88,8,11.55,11.55,0,0,1,69,10.6a1.52,1.52,0,0,1,.19,2.05.59.59,0,0,1-.4.21,15.48,15.48,0,0,1-1.8,0,.85.85,0,0,1-.53-.25,12.47,12.47,0,0,0-5.33-3c-3.28-.86-8.84.62-11.1,4.92a10.52,10.52,0,0,0-1.48,5.33,10.7,10.7,0,0,0,2.71,7,10.54,10.54,0,0,0,14.75.6,10.45,10.45,0,0,0,3.11-5.17c0-.15.07-.31.12-.54"/><path class="cls-1" d="M162,26.68V8.29a5.74,5.74,0,0,1,0-.71,1.53,1.53,0,0,1,1.56-1.38,1.62,1.62,0,0,1,1.61,1.47,3.76,3.76,0,0,1,0,.58V31.56c0,1-.27,1.4-1,1.65a1.67,1.67,0,0,1-2-.66L148,13.53a1.87,1.87,0,0,0-.49-.48v.48q0,9.23-.05,18.45a1.55,1.55,0,0,1-2.34,1.4,1.76,1.76,0,0,1-.85-1.7c0-2.4,0-4.8,0-7.2,0-5.34,0-10.68,0-16,0-.2,0-.39,0-.59a1.33,1.33,0,0,1,1.23-1.35,1.7,1.7,0,0,1,1.76.69c2.51,3.33,5,6.68,7.5,10l6.87,9.18.24.3.09,0"/><path class="cls-1" d="M99.19,10.93h-.11L95.51,21.86h7.36c-1.24-3.67-2.46-7.3-3.68-10.93m8.69,22.7a1.65,1.65,0,0,1-1.49-1.09c-.77-2.36-1.56-4.71-2.32-7.06a.48.48,0,0,0-.57-.39q-4.31,0-8.63,0a.5.5,0,0,0-.57.43c-.7,2.18-1.42,4.34-2.14,6.51a1.65,1.65,0,0,1-1.59,1.3A1.61,1.61,0,0,1,89,31.18c.63-1.81,1.21-3.62,1.81-5.43L96.64,8.22a2.66,2.66,0,0,1,3.13-1.94A2.52,2.52,0,0,1,101.65,8q2.91,8.7,5.78,17.4c.63,1.9,1.28,3.8,1.89,5.71a3,3,0,0,1,.14,1.11,1.48,1.48,0,0,1-1.58,1.39"/><path class="cls-1" d="M78.4,30.14h1.8c1.73,0,3.46,0,5.19,0a1.57,1.57,0,0,1,1.48,2.3,1.47,1.47,0,0,1-1.41.94c-2.81,0-5.62,0-8.42,0a1.71,1.71,0,0,1-1.9-1.94V8.26a1.6,1.6,0,0,1,1.8-1.81h8.42A1.51,1.51,0,0,1,87,8.52a1.51,1.51,0,0,1-1.61,1.17h-7c0,.17,0,.32,0,.47,0,2.66,0,5.32,0,8,0,.4.13.48.5.48,2.13,0,4.27,0,6.41,0,1,0,1.55.4,1.72,1.33a1.58,1.58,0,0,1-1.31,1.87,6.42,6.42,0,0,1-.88,0q-3,0-6,0c-.26,0-.41,0-.41.36q0,3.83,0,7.65c0,.07,0,.14,0,.27"/></svg>