<svg id="Ebene_1" data-name="Ebene 1" xmlns="http://www.w3.org/2000/svg" viewBox="0 0 109.51 86"><defs><style>.cls-1,.cls-2,.cls-3{fill:none;stroke:#3073a8;stroke-linecap:round;stroke-linejoin:round;}.cls-2{stroke-width:2px;}.cls-3{stroke-width:0.5px;}.cls-4{fill:#3073a8;}</style></defs><polyline class="cls-1" points="27 8.5 0.5 0.5 0.5 44"/><polyline class="cls-1" points="0.5 44 0.5 85.5 27.5 77.5"/><polyline class="cls-1" points="82.51 8.5 109.01 0.5 109.01 44"/><polyline class="cls-1" points="109.01 44 109.01 85.5 82.01 77.5"/><rect class="cls-2" x="32.31" y="8.38" width="44.88" height="70.71" rx="1"/><line class="cls-2" x1="54.75" y1="8.4" x2="54.75" y2="79.07"/><line class="cls-2" x1="32.33" y1="42.45" x2="77.18" y2="42.45"/><line class="cls-3" x1="32.28" y1="12.98" x2="77.23" y2="12.98"/><line class="cls-3" x1="32.28" y1="17.09" x2="77.23" y2="17.09"/><line class="cls-3" x1="32.28" y1="21.19" x2="77.23" y2="21.19"/><line class="cls-3" x1="32.28" y1="25.28" x2="77.23" y2="25.28"/><line class="cls-3" x1="32.28" y1="29.39" x2="77.23" y2="29.39"/><line class="cls-3" x1="32.28" y1="33.59" x2="77.23" y2="33.59"/><line class="cls-3" x1="32.28" y1="37.78" x2="77.23" y2="37.78"/><line class="cls-3" x1="32.28" y1="46.89" x2="77.23" y2="46.89"/><line class="cls-3" x1="32.28" y1="50.99" x2="77.23" y2="50.99"/><line class="cls-3" x1="32.28" y1="55.09" x2="77.23" y2="55.09"/><line class="cls-3" x1="32.28" y1="59.19" x2="77.23" y2="59.19"/><line class="cls-3" x1="32.28" y1="63.29" x2="77.23" y2="63.29"/><line class="cls-3" x1="32.28" y1="67.49" x2="77.23" y2="67.49"/><line class="cls-3" x1="32.28" y1="71.69" x2="77.23" y2="71.69"/><line class="cls-3" x1="32.28" y1="75.69" x2="77.23" y2="75.69"/><line class="cls-3" x1="49.67" y1="8.39" x2="49.67" y2="78.89"/><line class="cls-3" x1="45.57" y1="8.39" x2="45.57" y2="78.89"/><line class="cls-3" x1="41.37" y1="8.39" x2="41.37" y2="78.89"/><line class="cls-3" x1="37.17" y1="8.39" x2="37.17" y2="78.89"/><line class="cls-3" x1="72.34" y1="8.39" x2="72.34" y2="78.89"/><line class="cls-3" x1="68.24" y1="8.39" x2="68.24" y2="78.89"/><line class="cls-3" x1="64.04" y1="8.39" x2="64.04" y2="78.89"/><line class="cls-3" x1="59.84" y1="8.39" x2="59.84" y2="78.89"/><path class="cls-4" d="M17.25,17.17c.56,0,1-.3,1-.67s-.44-.66-1-.66-1,.29-1,.66.45.67,1,.67"/><path class="cls-4" d="M24.25,27.53c.83,0,1.5-.44,1.5-1s-.67-1-1.5-1-1.5.45-1.5,1,.68,1,1.5,1"/><path class="cls-4" d="M8.25,30.8c.69,0,1.25-.37,1.25-.83s-.56-.84-1.25-.84S7,29.51,7,30s.56.83,1.25.83"/><path class="cls-4" d="M84.75,15.2c.83,0,1.5-.45,1.5-1s-.67-1-1.5-1-1.5.44-1.5,1,.68,1,1.5,1"/><path class="cls-4" d="M91,26.8c.69,0,1.25-.37,1.25-.83s-.56-.84-1.25-.84-1.25.38-1.25.84.56.83,1.25.83"/><path class="cls-4" d="M85.25,34.67c.56,0,1-.3,1-.67s-.44-.66-1-.66-1,.29-1,.66.45.67,1,.67"/><path class="cls-4" d="M99,39c.83,0,1.5-.44,1.5-1s-.67-1-1.5-1-1.5.45-1.5,1,.68,1,1.5,1"/><path class="cls-4" d="M98.75,13.82c.69,0,1.25-.37,1.25-.83s-.56-.84-1.25-.84-1.25.37-1.25.84.56.83,1.25.83"/><path class="cls-4" d="M100.5,22.52c.56,0,1-.3,1-.67s-.44-.66-1-.66-1,.29-1,.66.45.67,1,.67"/><path class="cls-4" d="M17,37.51c.83,0,1.5-.45,1.5-1s-.67-1-1.5-1-1.5.45-1.5,1,.68,1,1.5,1"/><path class="cls-4" d="M10.75,12.15c.69,0,1.25-.37,1.25-.83s-.56-.84-1.25-.84-1.25.38-1.25.84.56.83,1.25.83"/><path class="cls-4" d="M23.25,34.5c.56,0,1-.3,1-.67s-.44-.66-1-.66-1,.3-1,.66.45.67,1,.67"/></svg>