<svg id="Ebene_1" data-name="Ebene 1" xmlns="http://www.w3.org/2000/svg" xmlns:xlink="http://www.w3.org/1999/xlink" viewBox="0 0 20.41 20.42"><defs><style>.cls-1{fill:none;}.cls-2{clip-path:url(#clip-path);}.cls-3{fill:#fff;}</style><clipPath id="clip-path"><rect class="cls-1" width="20.41" height="20.42"/></clipPath></defs><title>FB</title><g class="cls-2"><path class="cls-3" d="M0,10.22V4a3.92,3.92,0,0,1,3.33-4A4,4,0,0,1,4.1,0H16.32a3.93,3.93,0,0,1,4,3,3.81,3.81,0,0,1,.12,1q0,6.25,0,12.51a3.93,3.93,0,0,1-3.94,4q-6.27,0-12.54,0A3.91,3.91,0,0,1,0,16.49c0-2.09,0-4.18,0-6.27m15.41-2.1c.84,2.74.26,5.05-2.11,6.7a5.11,5.11,0,0,1-6,.15C4.78,13.36,4.14,11,5,8.13H2v8.26a1.94,1.94,0,0,0,2,2H16.39a1.75,1.75,0,0,0,.46,0,1.94,1.94,0,0,0,1.57-2c0-2.68,0-5.36,0-8,0-.07,0-.14,0-.22ZM10.2,13.8a3.59,3.59,0,1,0-3.59-3.58A3.6,3.6,0,0,0,10.2,13.8m4.4-8H18V2.38H14.6Z"/></g></svg>