<?xml version="1.0" encoding="UTF-8"?><svg id="Ebene_1" xmlns="http://www.w3.org/2000/svg" viewBox="0 0 2206.75 895.78" fill="#2e2e2e"><path d="M491.43,275.7l-24.83-7.24v-61.05h-109.68v56.91l197.76,42.31.86,232.89c-1.16,7.74-9.69,7.68-15.69,9.14-61.56,2.46-122.73,17.04-183.98,20.89-6.3.4-23.78,2.04-23.78-7.21V209.48h-107.61v117.96h93.13v20.7h-93.13v171.77l89.73.16c6.21,1.95,2.43,19.16,3.4,24.68h-112.79l-4.24-6.11.94-351.08,9.39-3.02,276.4,1.16c.93.56,4.14,5.62,4.14,6.21v83.82ZM437.62,304.68l-80.71-14.49v115.89l80.71,4.14v-105.55ZM530.75,323.3l-68.29-12.42v101.41l68.29,2.07v-91.06ZM356.91,426.78v117.96l80.69-8.3-.89-103.59-79.81-6.08ZM530.75,437.12l-68.29-4.14v101.41l68.29-8.28v-88.99Z"/><path d="M977.77,292.26v-103.48h26.9v151.07l-27.92-2.08-64.26-101.3c-8.05-5.52-.94,2.29-.94,3.02v100.37h-26.9v-151.07l28.08,1.92,65.05,101.55Z"/><path d="M1593.45,188.78c39.34,5.27,47.24,51.52,15.52,72.41,35.15,5.15,36.14,53.27,8.97,70.05-2.6,1.61-14.13,6.54-16.22,6.54h-73.47v-149.01c20.38,1.96,45.41-2.65,65.19,0ZM1557.23,250.87c17.24.24,44.72,2.67,43.59-21.7-.99-21.5-28.92-17.74-43.59-17.62v39.32ZM1557.23,312.95h38.29c6.19,0,13.6-13.32,13.53-19.7-.08-7.17-8.88-19.62-15.6-19.62h-36.22v39.32Z"/><polygon points="1155.75 395.73 1180.56 394.58 1246.8 497.14 1246.8 395.73 1273.71 393.66 1273.71 544.74 1245.78 542.66 1181.61 441.24 1182.66 544.75 1155.75 544.74 1155.75 395.73"/><path d="M1463.07,188.78c35.64,5.08,48.96,55.51,23.87,79.75l-18.68,12.31,39.3,59.02h-30.01c-3.36,0-31.9-49.58-37.09-56.04l-15.69-1.9v57.95h-28.97v-151.07c20.85,2.13,47.11-2.87,67.26,0ZM1424.78,261.22c60.22,9.32,62.17-59.36,0-49.67v49.67Z"/><path d="M978.8,395.73c5.04.84,16.85,8.5,20.78,12.33,23.8,23.21,13.69,67.45-17.74,77.76l37.31,58.91h-30.01c-3.22,0-30.34-47.66-35.02-53.97l-15.69-1.9v57.95l-28.97-2.07v-149.01c20.95,2.47,49.35-3.33,69.33,0ZM938.45,418.5v49.67c17.76,2.54,45.52-3.14,45.57-25.87.05-25.17-26.97-24.74-45.57-23.8Z"/><path d="M1492.04,395.73c14.11,2.35,31.01,20.59,33.66,34.63,4.89,25.96-5.76,42.93-27.93,53.94-1.96.97-3.35-.61-2.61,3.49l39.3,56.95h-32.08c-7.21-8.1-30.57-53.35-37.64-55.48-3.4-1.03-7.45-.28-11-.4,1.25,18.55-5.99,37.77,0,55.89h-28.97v-149.01c20.33,2.4,47.88-3.23,67.26,0ZM1455.07,418.8c-2.93.9-2.42,2.15-2.9,4.35-1.04,4.84-1.18,40.79.41,43.08,20.9,7.95,49.35-4.06,44.15-29.66-3.25-16.02-28.21-21.92-41.67-17.78Z"/><path d="M1822.13,188.78l.51,108.15c5.22,21.63,37.25,27.68,51.25,10.87,2.4-2.88,8.26-15.72,8.26-18.65v-100.37h26.9v108.65c0,9.27-11.99,28.24-19.67,34.14-19.87,15.25-61.77,14.76-80.39-2.38-6.06-5.58-15.84-24-15.84-31.76v-108.65h28.97Z"/><path d="M1135.05,226.03h-28.97c-1.02-30.78-59.3-19.86-45.05,8.82,9.8,19.72,67.52,10.6,75.17,46.94,7.11,33.78-11.7,57.97-45.56,60.22-20.72,1.38-39.8-2.25-52.86-19.75-2.93-3.93-13.51-23.83-8.38-26.97,5.69-1.09,22.75-2.81,25.98,1.09s2.09,11.29,8.54,16.3c18.32,14.21,54.93,3,44.71-21.96-8.51-20.79-70.97-11.56-76.93-49.29-11.01-69.76,93.59-77.29,103.34-15.39Z"/><path d="M1780.74,339.86h-31.04l-10.12-36.02-53.75-.94-12.67,35.96-26.93.99,50.92-151.19,30.83,2.19,52.76,149.01ZM1731.07,279.84l-19.66-57.97-19.66,57.97h39.32Z"/><path d="M756.33,544.74l50.67-149.04,27.02-2.18,56.77,150.2c-1.57,2.06-1.68,2.32-4.22,2.27-8.2-.18-17.8-2.18-26.47-1.54l-10.84-34.68-52.34-.34-11.61,35.31h-28.97ZM841.18,486.79l-19.66-55.9-17.59,55.9h37.25Z"/><path d="M652.85,396.77l4.23-2.25c32.46,4.96,82.1-10.84,96.14,30.2,16.72,48.88-28.06,74.67-71.39,68.28v51.74h-28.97v-147.97ZM681.83,418.5v49.67c18.35,1.5,45.56.83,45.71-23.78.16-25.91-25.63-27.27-45.71-25.89Z"/><polygon points="855.67 188.78 855.67 211.55 795.65 211.55 795.65 250.87 849.46 250.87 849.46 273.63 795.65 273.63 795.65 315.02 855.67 315.02 855.67 339.86 766.68 339.86 766.68 188.78 855.67 188.78"/><polygon points="1366.84 188.78 1366.84 211.55 1306.82 211.55 1306.82 250.87 1360.63 250.87 1360.63 273.63 1306.82 273.63 1306.82 315.02 1366.84 315.02 1366.84 339.86 1277.85 339.86 1277.85 188.78 1366.84 188.78"/><path d="M1395.81,418.5h-60.02v39.32h53.81v22.76h-53.81v41.39h60.02v22.76h-88.99v-149.01h83.82c.51,0,1.23-1.67,2.07-1.6l2.86,2.88.25,21.48Z"/><polygon points="743.91 188.78 743.91 211.55 681.83 211.55 681.83 259.15 737.7 259.15 737.7 281.91 681.83 281.91 681.83 339.86 652.85 339.86 652.85 188.78 743.91 188.78"/><polygon points="1257.15 188.78 1257.15 211.55 1217.83 211.55 1217.83 339.86 1188.86 339.86 1188.86 211.55 1149.54 211.55 1149.54 188.78 1257.15 188.78"/><polygon points="1135.05 395.73 1135.05 418.5 1095.73 418.5 1095.73 544.74 1066.76 544.74 1066.76 418.5 1027.44 418.5 1027.44 395.73 1135.05 395.73"/><path d="M210.63,633.97v20.9h28.55v7.05h-28.55v26.23h-7.91v-61.23h38.36v7.05h-30.44Z"/><path d="M278.31,675.08h7.74c-1.46,7.65-8.08,14.28-19.26,14.28-12.9,0-20.55-9.37-20.55-23.65,0-12.9,7.57-22.45,20.3-22.45,9.89,0,16.86,5.85,19.09,15.22.6,2.49.86,5.59.86,9.37h-32.68c.34,10.75,5.85,15.65,12.99,15.65,6.36,0,10.49-3.53,11.52-8.43ZM253.89,662.09h25.11c-.77-8.51-5.76-12.99-12.47-12.99s-11.87,4.64-12.64,12.99Z"/><path d="M333.26,661.49v26.66h-7.57v-26.06c0-9.12-3.78-12.38-10.06-12.38s-11.35,4.64-11.35,13.42v25.03h-7.57v-43.69h7.31v5.76h.17c2.67-4.04,7.4-6.71,13.24-6.71,9.98,0,15.82,6.02,15.82,17.97Z"/><path d="M377.11,658.13h-7.4c0-5.85-3.61-9.03-9.72-9.03-5.25,0-8.51,2.41-8.51,6.19,0,4.56,3.18,5.33,10.49,7.05,8,1.98,16.51,3.78,16.51,13.93,0,7.83-6.71,13.07-17.29,13.07-11.44,0-18.23-5.5-18.32-15.74h7.65c0,6.28,3.96,9.72,10.75,9.72,5.68,0,9.46-2.58,9.46-6.54,0-5.07-3.61-6.02-12.04-8.08-7.31-1.81-14.79-3.27-14.79-12.81,0-7.48,6.62-12.64,16.17-12.64,10.66,0,17.03,5.25,17.03,14.88Z"/><path d="M407.21,681.78v6.19c-1.29.34-3.27.52-4.82.52-8.34,0-11.87-3.53-11.87-12.56v-25.46h-7.57v-6.02h7.57v-10.58h7.57v10.58h8.69v6.02h-8.69v24.68c0,4.99,1.63,7.05,6.02,7.05,1.12,0,2.32-.17,3.1-.43Z"/><path d="M443.76,675.08h7.74c-1.46,7.65-8.08,14.28-19.26,14.28-12.9,0-20.55-9.37-20.55-23.65,0-12.9,7.57-22.45,20.3-22.45,9.89,0,16.86,5.85,19.09,15.22.6,2.49.86,5.59.86,9.37h-32.68c.34,10.75,5.85,15.65,12.99,15.65,6.36,0,10.49-3.53,11.52-8.43ZM419.33,662.09h25.11c-.77-8.51-5.76-12.99-12.47-12.99s-11.87,4.64-12.64,12.99Z"/><path d="M485.63,644.38v6.79c-.95-.09-2.06-.26-3.01-.26-8.26,0-12.9,5.33-12.9,14.96v22.27h-7.57v-43.69h7.22v6.71h.17c2.92-4.82,7.31-7.14,12.9-7.14.95,0,2.24.09,3.18.34Z"/><path d="M575.66,633.97v54.18h-8v-54.18h-20.9v-7.05h49.79v7.05h-20.9Z"/><path d="M598.45,671.12v-26.66h7.57v26.06c0,9.12,3.78,12.38,10.06,12.38s11.35-4.64,11.35-13.42v-25.03h7.57v43.69h-7.31v-5.76h-.17c-2.67,4.04-7.48,6.71-13.33,6.71-9.98,0-15.74-6.02-15.74-17.97ZM604.73,635.17v-5.5h24.42v5.5h-24.42Z"/><path d="M671.89,644.38v6.79c-.95-.09-2.06-.26-3.01-.26-8.26,0-12.9,5.33-12.9,14.96v22.27h-7.57v-43.69h7.22v6.71h.17c2.92-4.82,7.31-7.14,12.9-7.14.95,0,2.24.09,3.18.34Z"/><path d="M706.8,675.08h7.74c-1.46,7.65-8.08,14.28-19.26,14.28-12.9,0-20.55-9.37-20.55-23.65,0-12.9,7.57-22.45,20.3-22.45,9.89,0,16.86,5.85,19.09,15.22.6,2.49.86,5.59.86,9.37h-32.68c.34,10.75,5.85,15.65,12.99,15.65,6.36,0,10.49-3.53,11.52-8.43ZM682.38,662.09h25.11c-.77-8.51-5.76-12.99-12.47-12.99s-11.87,4.64-12.64,12.99Z"/><path d="M761.75,661.49v26.66h-7.57v-26.06c0-9.12-3.78-12.38-10.06-12.38s-11.35,4.64-11.35,13.42v25.03h-7.57v-43.69h7.31v5.76h.17c2.67-4.04,7.4-6.71,13.24-6.71,9.98,0,15.82,6.02,15.82,17.97Z"/><path d="M874.05,645.84h-8c0-9.03-4.99-13.33-14.02-13.33-7.57,0-12.13,3.7-12.13,9.55,0,6.54,4.73,8.43,14.79,10.92,11.61,2.84,20.81,5.76,20.81,18.32,0,11.01-8.6,18.06-21.93,18.06-14.28,0-22.88-7.4-22.88-21.5h8.17c0,10.06,5.59,14.71,14.79,14.71s13.67-4.04,13.67-10.84-5.07-8.51-14.96-11.01c-11.78-2.92-20.55-5.85-20.55-18.15,0-9.89,7.83-16.86,20.3-16.86,14.62,0,21.93,6.88,21.93,20.12Z"/><path d="M924.78,666.3c0,14.28-8,23.05-20.81,23.05s-20.73-8.77-20.73-23.05,7.91-23.05,20.73-23.05,20.81,8.77,20.81,23.05ZM891.16,666.3c0,10.41,4.9,16.86,12.81,16.86s12.9-6.45,12.9-16.86-4.9-16.86-12.9-16.86-12.81,6.45-12.81,16.86Z"/><path d="M971.56,661.49v26.66h-7.57v-26.06c0-9.12-3.78-12.38-10.06-12.38s-11.35,4.64-11.35,13.42v25.03h-7.57v-43.69h7.31v5.76h.17c2.67-4.04,7.4-6.71,13.24-6.71,9.98,0,15.82,6.02,15.82,17.97Z"/><path d="M1021.09,661.49v26.66h-7.57v-26.06c0-9.12-3.78-12.38-10.06-12.38s-11.35,4.64-11.35,13.42v25.03h-7.57v-43.69h7.31v5.76h.17c2.67-4.04,7.4-6.71,13.24-6.71,9.98,0,15.82,6.02,15.82,17.97Z"/><path d="M1062.97,675.08h7.74c-1.46,7.65-8.08,14.28-19.26,14.28-12.9,0-20.55-9.37-20.55-23.65,0-12.9,7.57-22.45,20.3-22.45,9.89,0,16.86,5.85,19.09,15.22.6,2.49.86,5.59.86,9.37h-32.68c.34,10.75,5.85,15.65,12.99,15.65,6.36,0,10.49-3.53,11.52-8.43ZM1038.54,662.09h25.11c-.77-8.51-5.76-12.99-12.47-12.99s-11.87,4.64-12.64,12.99Z"/><path d="M1117.91,661.49v26.66h-7.57v-26.06c0-9.12-3.78-12.38-10.06-12.38s-11.35,4.64-11.35,13.42v25.03h-7.57v-43.69h7.31v5.76h.17c2.67-4.04,7.4-6.71,13.24-6.71,9.98,0,15.82,6.02,15.82,17.97Z"/><path d="M1159.1,658.13h-7.4c0-5.85-3.61-9.03-9.72-9.03-5.25,0-8.51,2.41-8.51,6.19,0,4.56,3.18,5.33,10.49,7.05,8,1.98,16.51,3.78,16.51,13.93,0,7.83-6.71,13.07-17.29,13.07-11.44,0-18.23-5.5-18.32-15.74h7.65c0,6.28,3.96,9.72,10.75,9.72,5.68,0,9.46-2.58,9.46-6.54,0-5.07-3.61-6.02-12.04-8.08-7.31-1.81-14.79-3.27-14.79-12.81,0-7.48,6.62-12.64,16.17-12.64,10.66,0,17.03,5.25,17.03,14.88Z"/><path d="M1206.05,659.94h-7.91c-.52-6.19-4.82-10.49-10.84-10.49-7.74,0-12.47,6.45-12.47,16.86s4.73,16.86,12.47,16.86c6.02,0,10.32-4.82,10.84-11.09h7.91c-.86,9.98-8,17.29-18.66,17.29-12.64,0-20.55-8.86-20.55-23.05s7.91-23.05,20.55-23.05c10.49,0,17.8,6.88,18.66,16.68Z"/><path d="M1222.47,649.96c3.01-4.39,7.91-6.45,12.99-6.45,9.98,0,15.82,6.02,15.82,17.97v26.66h-7.57v-26.06c0-9.12-3.78-12.38-10.06-12.38s-11.35,4.56-11.35,13.42v25.03h-7.57v-61.23h7.57v23.05h.17Z"/><path d="M1261.77,671.12v-26.66h7.57v26.06c0,9.12,3.78,12.38,10.06,12.38s11.35-4.64,11.35-13.42v-25.03h7.57v43.69h-7.31v-5.76h-.17c-2.67,4.04-7.48,6.71-13.33,6.71-9.98,0-15.74-6.02-15.74-17.97Z"/><path d="M1329.02,681.78v6.19c-1.29.34-3.27.52-4.82.52-8.34,0-11.87-3.53-11.87-12.56v-25.46h-7.57v-6.02h7.57v-10.58h7.57v10.58h8.69v6.02h-8.69v24.68c0,4.99,1.63,7.05,6.02,7.05,1.12,0,2.32-.17,3.1-.43Z"/><path d="M1342.95,681.78v.17h26.57v6.19h-35.86v-6.54l25.71-30.79v-.17h-24.85v-6.19h34.14v6.54l-25.71,30.79Z"/><path d="M1430.31,688.15v-61.23h7.91v61.23h-7.91Z"/><path d="M1489.65,661.49v26.66h-7.57v-26.06c0-9.12-3.78-12.38-10.06-12.38s-11.35,4.64-11.35,13.42v25.03h-7.57v-43.69h7.31v5.76h.17c2.67-4.04,7.4-6.71,13.24-6.71,9.98,0,15.82,6.02,15.82,17.97Z"/><path d="M1533.5,658.13h-7.4c0-5.85-3.61-9.03-9.72-9.03-5.25,0-8.51,2.41-8.51,6.19,0,4.56,3.18,5.33,10.49,7.05,8,1.98,16.51,3.78,16.51,13.93,0,7.83-6.71,13.07-17.29,13.07-11.44,0-18.23-5.5-18.32-15.74h7.65c0,6.28,3.96,9.72,10.75,9.72,5.68,0,9.46-2.58,9.46-6.54,0-5.07-3.61-6.02-12.04-8.08-7.31-1.81-14.79-3.27-14.79-12.81,0-7.48,6.62-12.64,16.17-12.64,10.66,0,17.03,5.25,17.03,14.88Z"/><path d="M1574.52,675.08h7.74c-1.46,7.65-8.08,14.28-19.26,14.28-12.9,0-20.55-9.37-20.55-23.65,0-12.9,7.57-22.45,20.3-22.45,9.89,0,16.86,5.85,19.09,15.22.6,2.49.86,5.59.86,9.37h-32.68c.34,10.75,5.85,15.65,12.99,15.65,6.36,0,10.49-3.53,11.52-8.43ZM1550.09,662.09h25.11c-.77-8.51-5.76-12.99-12.47-12.99s-11.87,4.64-12.64,12.99Z"/><path d="M1620,688.15l-19.35-21.84h-.17v21.84h-7.57v-61.23h7.57v35.69h.17l17.63-18.15h9.37l-19.61,19.78,21.93,23.91h-9.98Z"/><path d="M1654.4,681.78v6.19c-1.29.34-3.27.52-4.82.52-8.34,0-11.87-3.53-11.87-12.56v-25.46h-7.57v-6.02h7.57v-10.58h7.57v10.58h8.69v6.02h-8.69v24.68c0,4.99,1.63,7.05,6.02,7.05,1.12,0,2.32-.17,3.1-.43Z"/><path d="M1690.95,675.08h7.74c-1.46,7.65-8.08,14.28-19.26,14.28-12.9,0-20.55-9.37-20.55-23.65,0-12.9,7.57-22.45,20.3-22.45,9.89,0,16.86,5.85,19.09,15.22.6,2.49.86,5.59.86,9.37h-32.68c.34,10.75,5.85,15.65,12.99,15.65,6.36,0,10.49-3.53,11.52-8.43ZM1666.52,662.09h25.11c-.77-8.51-5.76-12.99-12.47-12.99s-11.87,4.64-12.64,12.99Z"/><path d="M1745.9,661.49v26.66h-7.57v-26.06c0-9.12-3.78-12.38-10.06-12.38s-11.35,4.64-11.35,13.42v25.03h-7.57v-43.69h7.31v5.76h.17c2.67-4.04,7.4-6.71,13.24-6.71,9.98,0,15.82,6.02,15.82,17.97Z"/><path d="M1789.75,658.13h-7.4c0-5.85-3.61-9.03-9.72-9.03-5.25,0-8.51,2.41-8.51,6.19,0,4.56,3.18,5.33,10.49,7.05,8,1.98,16.51,3.78,16.51,13.93,0,7.83-6.71,13.07-17.29,13.07-11.44,0-18.23-5.5-18.32-15.74h7.65c0,6.28,3.96,9.72,10.75,9.72,5.68,0,9.46-2.58,9.46-6.54,0-5.07-3.61-6.02-12.04-8.08-7.31-1.81-14.79-3.27-14.79-12.81,0-7.48,6.62-12.64,16.17-12.64,10.66,0,17.03,5.25,17.03,14.88Z"/><path d="M1837.9,659.94h-7.91c-.52-6.19-4.82-10.49-10.84-10.49-7.74,0-12.47,6.45-12.47,16.86s4.73,16.86,12.47,16.86c6.02,0,10.32-4.82,10.84-11.09h7.91c-.86,9.98-8,17.29-18.66,17.29-12.64,0-20.55-8.86-20.55-23.05s7.91-23.05,20.55-23.05c10.49,0,17.8,6.88,18.66,16.68Z"/><path d="M1855.53,649.96c3.01-4.39,7.91-6.45,12.99-6.45,9.98,0,15.82,6.02,15.82,17.97v26.66h-7.57v-26.06c0-9.12-3.78-12.38-10.06-12.38s-11.35,4.56-11.35,13.42v25.03h-7.57v-61.23h7.57v23.05h.17Z"/><path d="M1896.03,671.12v-26.66h7.57v26.06c0,9.12,3.78,12.38,10.06,12.38s11.35-4.64,11.35-13.42v-25.03h7.57v43.69h-7.31v-5.76h-.17c-2.67,4.04-7.48,6.71-13.33,6.71-9.98,0-15.74-6.02-15.74-17.97Z"/><path d="M1964.48,681.78v6.19c-1.29.34-3.27.52-4.82.52-8.34,0-11.87-3.53-11.87-12.56v-25.46h-7.57v-6.02h7.57v-10.58h7.57v10.58h8.69v6.02h-8.69v24.68c0,4.99,1.63,7.05,6.02,7.05,1.12,0,2.32-.17,3.1-.43Z"/><path d="M1979.61,681.78v.17h26.57v6.19h-35.86v-6.54l25.71-30.79v-.17h-24.85v-6.19h34.14v6.54l-25.71,30.79Z"/><circle cx="524.37" cy="660.33" r="5.42"/><circle cx="799.27" cy="660.33" r="5.42"/><circle cx="1400.82" cy="660.33" r="5.42"/></svg>