<svg id="Ebene_1" data-name="Ebene 1" xmlns="http://www.w3.org/2000/svg" viewBox="0 0 315.05 82.44"><defs><style>.cls-1{fill:#485156;}</style></defs><path class="cls-1" d="M306.3,82.14h2.1V74.48l4.4,7.66h2.25V71.34H313v7.53l-4.28-7.53H306.3Zm-5-10.8H293.4v10.8h8.18V80.2h-6V77.42h5.25V75.55H295.6V73.26h5.72Zm-17.17,0H279.5v10.8h4.65a3.92,3.92,0,0,0,3.63-2,7.27,7.27,0,0,0,.86-3.65,8.22,8.22,0,0,0-.21-1.79,4.82,4.82,0,0,0-.76-1.74,3.57,3.57,0,0,0-1.84-1.37,5.65,5.65,0,0,0-1.68-.24m-.38,1.88a2.18,2.18,0,0,1,2.06.88,5,5,0,0,1,.52,2.53,5.55,5.55,0,0,1-.35,2.06,2.25,2.25,0,0,1-2.23,1.58h-2.08v-7Zm-16.18-2.88h1.92V68.61h-1.92Zm2.93,0h1.92V68.61h-1.92Zm-5.62,11.8h2.36l.73-2.22h4l.71,2.22h2.45l-3.82-10.8h-2.55ZM270,73.81l1.36,4.25h-2.76Zm-16.5,8.33h7.64V80.2h-5.39V71.34h-2.25Zm-12.17,0H249V80.2H243.6V71.34h-2.26Zm-12.16,0h7.65V80.2h-5.39V71.34h-2.26Zm-4.72-5.41a5.75,5.75,0,0,0-1.64-4.46,5.62,5.62,0,0,0-7.07,0,5.75,5.75,0,0,0-1.64,4.46,5.83,5.83,0,0,0,1.64,4.45,5.59,5.59,0,0,0,7.07,0,5.83,5.83,0,0,0,1.64-4.45m-5.17,3.8a2.6,2.6,0,0,1-2.14-1,5.34,5.34,0,0,1,0-5.62,2.6,2.6,0,0,1,2.14-1,2.56,2.56,0,0,1,2.12,1,5.39,5.39,0,0,1,0,5.62,2.56,2.56,0,0,1-2.12,1m-13.4-9.19h-5.16v10.8h2.21V77.91h2.2a1.79,1.79,0,0,1,1.28.34,2,2,0,0,1,.36,1.38l0,1a4.73,4.73,0,0,0,.09.93c0,.15.08.34.15.58h2.49v-.27a.9.9,0,0,1-.42-.62,5.35,5.35,0,0,1-.06-1v-.72a3.53,3.53,0,0,0-.31-1.69,2,2,0,0,0-1.06-.86,2.12,2.12,0,0,0,1.28-1,3.2,3.2,0,0,0,.39-1.51,3.08,3.08,0,0,0-.74-2,2.7,2.7,0,0,0-1-.76,4.88,4.88,0,0,0-1.71-.28m-.46,1.88a2.19,2.19,0,0,1,1,.19,1.36,1.36,0,0,1,.62,1.32,1.2,1.2,0,0,1-.64,1.21,2.53,2.53,0,0,1-1.09.18h-2.42v-2.9Zm-17.64,4.85a1.92,1.92,0,1,0-1.92-1.92,1.93,1.93,0,0,0,1.92,1.92m-22.48,4.07h2.1V74.48l4.39,7.66h2.26V71.34H172v7.53l-4.29-7.53h-2.36Zm-5-10.8H152.4v10.8h8.18V80.2h-6V77.42h5.24V75.55h-5.24V73.26h5.71Zm-16.6,0h-5.16v10.8h2.2V77.91H143a1.83,1.83,0,0,1,1.29.34,2,2,0,0,1,.36,1.38v1a4.73,4.73,0,0,0,.1.93,4.26,4.26,0,0,0,.14.58h2.49v-.27a.89.89,0,0,1-.41-.62,5.35,5.35,0,0,1-.06-1v-.72a3.65,3.65,0,0,0-.31-1.69,2,2,0,0,0-1.06-.86,2.15,2.15,0,0,0,1.28-1,3.2,3.2,0,0,0,.39-1.51,3.08,3.08,0,0,0-.2-1.13,3.35,3.35,0,0,0-.55-.91,2.62,2.62,0,0,0-1-.76,4.77,4.77,0,0,0-1.7-.28m-.47,1.88a2.19,2.19,0,0,1,1,.19,1.34,1.34,0,0,1,.62,1.32,1.2,1.2,0,0,1-.64,1.21,2.51,2.51,0,0,1-1.08.18h-2.43v-2.9Zm-16.66-2.88h1.91V68.61h-1.91Zm2.93,0h1.91V68.61h-1.91ZM124.67,78a5.5,5.5,0,0,0,.54,2.68c.66,1.17,1.93,1.76,3.8,1.76s3.13-.59,3.79-1.76a5.5,5.5,0,0,0,.54-2.68V71.34H131V78a3.67,3.67,0,0,1-.26,1.62,2.19,2.19,0,0,1-3.55,0A3.64,3.64,0,0,1,127,78V71.34h-2.29Zm-13.06-6.64v1.92h3.24v8.88h2.27V73.26h3.23V71.34Zm-12,6.73a1.92,1.92,0,1,0-1.92-1.92,1.93,1.93,0,0,0,1.92,1.92M82.39,71.34H77.22v10.8h2.21V77.91h2.2a1.83,1.83,0,0,1,1.29.34,2.11,2.11,0,0,1,.35,1.38l0,1a4.73,4.73,0,0,0,.09.93c0,.15.08.34.15.58H86v-.27a.9.9,0,0,1-.42-.62,5.35,5.35,0,0,1-.06-1v-.72a3.53,3.53,0,0,0-.31-1.69A2,2,0,0,0,84.17,77a2.14,2.14,0,0,0,1.29-1,3.31,3.31,0,0,0,.38-1.51,2.88,2.88,0,0,0-.2-1.13,3.09,3.09,0,0,0-.54-.91,2.7,2.7,0,0,0-1-.76,4.86,4.86,0,0,0-1.7-.28m-.47,1.88a2.19,2.19,0,0,1,1,.19,1.34,1.34,0,0,1,.62,1.32,1.2,1.2,0,0,1-.64,1.21,2.51,2.51,0,0,1-1.08.18H79.43v-2.9Zm-9.77-1.88H64.23v10.8h8.18V80.2h-6V77.42h5.24V75.55H66.44V73.26h5.71Zm-21.05,0v1.92h3.25v8.88h2.27V73.26h3.23V71.34ZM38.47,78.81a3.22,3.22,0,0,0,1.22,2.65,5.33,5.33,0,0,0,3.36,1,4.83,4.83,0,0,0,3.23-1A3.1,3.1,0,0,0,47.42,79a2.64,2.64,0,0,0-1-2.2A4.75,4.75,0,0,0,44.59,76l-1.89-.45a6.27,6.27,0,0,1-1.44-.45.92.92,0,0,1-.52-.86,1.09,1.09,0,0,1,.53-1,2.5,2.5,0,0,1,1.43-.36,3,3,0,0,1,1.34.28,1.53,1.53,0,0,1,.87,1.38h2.17a3.24,3.24,0,0,0-1.28-2.63,4.83,4.83,0,0,0-2.95-.9,4.53,4.53,0,0,0-3.13,1,3.07,3.07,0,0,0-1.07,2.41,2.63,2.63,0,0,0,1.09,2.34,7.42,7.42,0,0,0,2.37.82l1.17.26a5.18,5.18,0,0,1,1.49.5.94.94,0,0,1,.48.83,1.25,1.25,0,0,1-1,1.25,4,4,0,0,1-1.32.18A2.36,2.36,0,0,1,41,79.91a2.12,2.12,0,0,1-.41-1.1ZM25.13,82.14h2.1V74.48l4.4,7.66h2.25V71.34h-2.1v7.53L27.5,71.34H25.13Zm-5-10.8H12.23v10.8h8.18V80.2h-6V77.42h5.25V75.55H14.43V73.26h5.72ZM0,82.14H2.24V77.61H7V75.74H2.24V73.26H7.7v-1.9H0Z"/><rect class="cls-1" x="123.95" width="7.25" height="52"/><rect class="cls-1" x="208.18" width="7.25" height="52"/><polygon class="cls-1" points="190.74 52 151.22 52 151.22 0 158.47 0 158.47 44.75 190.74 44.75 190.74 52"/><path class="cls-1" d="M264.82,51.48H246.09A12.49,12.49,0,0,1,233.62,39V13A12.49,12.49,0,0,1,246.09.52h18.73A12.49,12.49,0,0,1,277.29,13h-7.24a5.24,5.24,0,0,0-5.23-5.23H246.09A5.24,5.24,0,0,0,240.86,13V39a5.24,5.24,0,0,0,5.23,5.23h18.73A5.24,5.24,0,0,0,270.05,39h7.24A12.49,12.49,0,0,1,264.82,51.48Z"/><path class="cls-1" d="M101.87,52H70.31a.72.72,0,0,1-.72-.72V.72A.72.72,0,0,1,70.31,0h31.56a.72.72,0,0,1,.72.72V51.28A.72.72,0,0,1,101.87,52ZM71,50.56h30.12V1.44H71Z"/><path class="cls-1" d="M86.46,51.9a.72.72,0,0,1-.72-.72V.82a.72.72,0,0,1,1.44,0V51.18A.72.72,0,0,1,86.46,51.9Z"/><path class="cls-1" d="M101.42,26H71.13a.72.72,0,0,1,0-1.44h30.29a.72.72,0,0,1,0,1.44Z"/><rect class="cls-1" x="70.92" y="3.37" width="30.33" height="0.58"/><rect class="cls-1" x="70.92" y="6.04" width="30.33" height="0.58"/><rect class="cls-1" x="70.92" y="8.71" width="30.33" height="0.58"/><rect class="cls-1" x="70.92" y="11.38" width="30.33" height="0.58"/><rect class="cls-1" x="70.92" y="14.05" width="30.33" height="0.58"/><rect class="cls-1" x="70.92" y="16.72" width="30.33" height="0.58"/><rect class="cls-1" x="70.92" y="19.39" width="30.33" height="0.58"/><path class="cls-1" d="M69.87,52H38.31a.72.72,0,0,1-.72-.72V.72A.72.72,0,0,1,38.31,0H69.87a.72.72,0,0,1,.72.72V51.28A.72.72,0,0,1,69.87,52ZM39,50.56H69.15V1.44H39Z"/><path class="cls-1" d="M64.53,26.72a1.67,1.67,0,1,0-1.67-1.67,1.66,1.66,0,0,0,1.67,1.67"/><rect class="cls-1" x="70.92" y="22.12" width="30.33" height="0.58"/></svg>