<svg id="Ebene_1" data-name="Ebene 1" xmlns="http://www.w3.org/2000/svg" viewBox="0 0 232.53 40"><defs><style>.cls-1{fill:#3073a8;}</style></defs><path class="cls-1" d="M98.69,20.4c.06-.18.13-.35.18-.52q2.68-9.43,5.34-18.86A.69.69,0,0,1,105,.41c1.93,0,3.87,0,5.8,0,.5,0,.63.17.63.64q0,12.73,0,25.45c0,.52-.15.68-.66.66-1,0-2,0-3.05,0-.51,0-.67-.13-.67-.65,0-2.55,0-5.11,0-7.66v-14l-.16,0c-.09.22-.2.42-.27.64q-3.16,10.5-6.32,21c-.17.57-.42.78-1,.73a14.68,14.68,0,0,0-2,0c-.49,0-.68-.14-.81-.6q-1.84-6.48-3.72-12.95L90.43,5.37c-.06-.2-.13-.39-.19-.58h-.17c0,.26-.06.51-.06.76V26.33c0,.82,0,.82-.83.82s-1.84,0-2.76,0c-.58,0-.71-.17-.71-.72,0-7.71,0-15.41,0-23.11,0-.8,0-1.6,0-2.4,0-.38.13-.52.51-.51,2.09,0,4.18,0,6.27,0,.52,0,.55.34.64.66l3.77,13.61,1.41,5.11c.06.2.13.4.19.6h.18"/><path class="cls-1" d="M155.88,21.39V1.23c0-.81,0-.81.84-.81,1,0,2,0,3,0,.4,0,.54.14.54.55q0,12.84,0,25.67c0,.36-.09.53-.49.53-1.62,0-3.25,0-4.87,0-.45,0-.54-.27-.67-.58l-5.75-13.49-2.7-6.34c-.08-.17-.18-.33-.26-.49l-.17,0V7c0,6.47,0,12.94,0,19.41,0,.6-.15.79-.75.76-1-.06-2,0-3.05,0-.48,0-.59-.16-.59-.61q0-12.75,0-25.5c0-.54.19-.65.68-.64,1.49,0,3,0,4.46,0A.83.83,0,0,1,147,1q3.09,7.35,6.22,14.68l2.2,5.16c.08.19.18.37.27.56l.18,0"/><path class="cls-1" d="M170.69,13.71c0,3,0,6.09,0,9.13,0,.43,0,.71.59.67s1.1,0,1.64,0a7.07,7.07,0,0,0,7-5,15.33,15.33,0,0,0,.3-8.36,7.14,7.14,0,0,0-4.62-5.6,11.19,11.19,0,0,0-4-.51c-.92,0-.92,0-.92.89v8.83m-4.75.07V1.21c0-.79,0-.79.82-.79,2.54,0,5.08-.08,7.61,0,3.7.19,6.95,1.42,9.15,4.63a12.77,12.77,0,0,1,2,5.79,19.51,19.51,0,0,1-.4,7.53c-1.38,5-4.68,7.75-9.75,8.51a25.42,25.42,0,0,1-3,.21c-1.93,0-3.86,0-5.8,0-.49,0-.64-.15-.63-.63,0-1.36,0-2.73,0-4.09Z"/><path class="cls-1" d="M216.19,3.92V4c-.35,0-.71,0-1.06,0s-.58.13-.58.57c0,2.34,0,4.67,0,7,0,.4.13.58.54.56.89,0,1.8,0,2.68-.12A3.57,3.57,0,0,0,221,9.07a7.67,7.67,0,0,0,.08-2,2.91,2.91,0,0,0-2.51-2.82c-.77-.16-1.57-.2-2.36-.3m4.62,9.82c.17.12.22.18.29.2a3.45,3.45,0,0,1,2.53,2.52c1.22,3.45,2.39,6.92,3.58,10.37a1.43,1.43,0,0,1,0,.28c-.17,0-.32,0-.46,0-1.25,0-2.51,0-3.75,0a.89.89,0,0,1-1.06-.76c-.73-2.54-1.53-5.07-2.31-7.6-.1-.33-.21-.66-.34-1A3.41,3.41,0,0,0,216,15.58c-1.47-.05-1.47,0-1.47,1.41,0,3.17,0,6.35,0,9.53,0,.47-.1.66-.61.64-1.21,0-2.42,0-3.64,0-.37,0-.55-.12-.52-.5a.48.48,0,0,0,0-.12q0-12.75,0-25.5c0-.5.18-.63.66-.63,2.83,0,5.66,0,8.5.05a10.31,10.31,0,0,1,2.69.45A5.92,5.92,0,0,1,226,6.83a9.37,9.37,0,0,1-.19,2.31,5.69,5.69,0,0,1-4.48,4.43l-.55.17"/><path class="cls-1" d="M28.33,4.39h-.24C26.86,8.58,25.62,12.76,24.37,17h7.37L28.33,4.39M39.56,27.15c-1.6,0-3.11,0-4.6,0-.17,0-.4-.32-.46-.54-.53-1.75-1.06-3.5-1.53-5.26a.81.81,0,0,0-.95-.69c-2.66,0-5.31,0-8,0a.78.78,0,0,0-.9.67c-.5,1.78-1,3.54-1.56,5.32a.62.62,0,0,1-.73.54c-1.36,0-2.73,0-4.19,0,.07-.24.11-.42.17-.59Q21.15,13.78,25.42,1a.72.72,0,0,1,.82-.6c1.37,0,2.74,0,4.1,0a.69.69,0,0,1,.8.56q4.11,12.79,8.27,25.58c.05.16.08.33.15.6"/><path class="cls-1" d="M129.82,17,126.41,4.38l-.23,0c-1.24,4.17-2.47,8.35-3.73,12.6Zm7.81,10.15c-1.38,0-2.66,0-3.95,0-1.08,0-.88.18-1.2-.9-.5-1.66-1-3.31-1.46-5a.71.71,0,0,0-.8-.64c-2.73,0-5.47,0-8.2,0a.65.65,0,0,0-.74.56c-.52,1.82-1.09,3.62-1.61,5.43a.63.63,0,0,1-.73.54c-1.37,0-2.73,0-4.15,0a3.3,3.3,0,0,1,.1-.48Q119.2,13.8,123.52.94a.63.63,0,0,1,.7-.53c1.43,0,2.86,0,4.28,0a.6.6,0,0,1,.68.47q4.15,12.89,8.32,25.76c0,.13.07.26.13.51"/><path class="cls-1" d="M71.08,4.39H70.9C69.66,8.56,68.43,12.75,67.17,17c.31,0,.5,0,.69,0h6c.7,0,.71,0,.54-.68Q72.83,10.67,71.29,5c-.06-.2-.14-.38-.21-.57M82.36,27.15c-1.6,0-3.12,0-4.64,0-.15,0-.35-.31-.42-.51-.53-1.75-1-3.51-1.53-5.27a.8.8,0,0,0-.93-.71q-4,0-8,0a.81.81,0,0,0-.93.71c-.48,1.72-1,3.43-1.51,5.15-.14.48-.34.69-.88.68-1.33-.05-2.65,0-4.08,0,.07-.24.11-.42.17-.59Q63.93,13.8,68.21,1.05a.78.78,0,0,1,.91-.64c1.35,0,2.7,0,4,0a.66.66,0,0,1,.76.53q4.14,12.83,8.29,25.65c.05.14.08.3.15.56"/><path class="cls-1" d="M190.59,13.8c0-4.23,0-8.47,0-12.7,0-.54.15-.69.69-.69q6.33,0,12.66,0c.51,0,.7.14.67.66,0,.82,0,1.64,0,2.46,0,.49-.17.63-.65.63-2.56,0-5.12,0-7.68,0-.9,0-.9,0-.9.9,0,1.86,0,3.71,0,5.56,0,.85,0,.85.81.85,2.43,0,4.85,0,7.28,0,.52,0,.68.15.66.66q-.06,1.26,0,2.52c0,.51-.18.62-.65.62-2.42,0-4.84,0-7.27,0-.82,0-.83,0-.83.8,0,2.2,0,4.4,0,6.61,0,.54.15.74.73.74,2.75,0,5.51,0,8.27,0,.55,0,.71.17.68.7,0,.82,0,1.64,0,2.46,0,.47-.11.64-.62.64q-6.63,0-13.25,0c-.49,0-.59-.16-.59-.61q0-6.37,0-12.75"/><path class="cls-1" d="M.63,22.34a31.8,31.8,0,0,0,3.68,1.17,9.34,9.34,0,0,0,3.12.07,3.32,3.32,0,0,0,2.94-2.85,3.42,3.42,0,0,0-1.44-3.84c-1.22-.8-2.5-1.51-3.78-2.23a13,13,0,0,1-3.31-2.38C-1.17,9-.89,2,5.73.34a14.71,14.71,0,0,1,7.89.49c.15.05.36.25.35.38,0,1.19-.11,2.39-.17,3.63-.93-.28-1.75-.59-2.6-.78A7.72,7.72,0,0,0,7.38,4,2.93,2.93,0,0,0,5.07,6.26,3.1,3.1,0,0,0,6.2,9.6a29.4,29.4,0,0,0,2.58,1.61c1.34.82,2.74,1.57,4,2.47a6.3,6.3,0,0,1,2.59,5.25A8.24,8.24,0,0,1,14,24.3a7.77,7.77,0,0,1-5.52,3.06,15.89,15.89,0,0,1-6.72-.42l-.06,0C.43,26.53.42,26.53.47,25.25c0-1,.11-2,.16-2.91"/><path class="cls-1" d="M42.82,13.74q0-6.32,0-12.63c0-.54.15-.72.69-.7,1.17,0,2.35,0,3.52,0,.53,0,.65.17.65.67,0,7.16,0,14.31,0,21.47,0,.82,0,.82.82.83,2.46,0,4.93,0,7.39,0,.49,0,.65.15.64.63,0,.84,0,1.68,0,2.51,0,.46-.11.65-.62.65q-6.26,0-12.49,0c-.49,0-.58-.17-.58-.61q0-6.4,0-12.81"/><path class="cls-1" d="M157.27,36.42a16.19,16.19,0,0,0-.6-1.89,2,2,0,0,0-1.88-1.17,2.06,2.06,0,0,0-2,1.12,3.71,3.71,0,0,0,.07,3.89,2.14,2.14,0,0,0,3.69,0,10.25,10.25,0,0,0,.7-1.95M154.7,40a2.74,2.74,0,0,1-2.79-2,4.68,4.68,0,0,1,.16-3.58,2.73,2.73,0,0,1,2.69-1.62,2.69,2.69,0,0,1,2.62,1.62,4.53,4.53,0,0,1,0,4.06A2.65,2.65,0,0,1,154.7,40"/><path class="cls-1" d="M15.05,38.85V32.94l.61,0v6.9a.88.88,0,0,1-1.2-.49c-1-1.79-2.05-3.54-3.19-5.29v5.8l-.63,0V33a.83.83,0,0,1,1.11.44c.93,1.69,1.92,3.35,2.89,5l.3.46.11,0"/><path class="cls-1" d="M167.93,39.26c1.35,0,2.67.05,3.42-1.24a3.22,3.22,0,0,0-.07-3.5c-.79-1.22-2.09-1.05-3.35-1Zm-.69.56v-6.9a9.62,9.62,0,0,1,3.3.23,2.57,2.57,0,0,1,1.62,1.58,4.3,4.3,0,0,1,.05,3.08,3.13,3.13,0,0,1-2.91,2,20.11,20.11,0,0,1-2.06,0"/><path class="cls-1" d="M26.07,33.51v5.76c1.31,0,2.62,0,3.38-1.18a3.21,3.21,0,0,0,0-3.55c-.78-1.24-2.09-1.07-3.36-1M25.39,40v-7a7.84,7.84,0,0,1,3.57.34,2.39,2.39,0,0,1,.63.42,3.76,3.76,0,0,1,.91,3.57,2.7,2.7,0,0,1-2.17,2.34,26.26,26.26,0,0,1-2.94.36"/><path class="cls-1" d="M139.07,36.07a12.29,12.29,0,0,0,1.76-.32,1.1,1.1,0,0,0,.69-1.33,1,1,0,0,0-1-.9c-.46,0-.92,0-1.41,0Zm1.84.21c.94,1,1.18,2.36,1.81,3.49-.52.21-.78.06-.94-.4s-.45-1.08-.68-1.61c-.5-1.15-.71-1.27-2-1.15v3.21l-.66,0V33c.84,0,1.66-.06,2.46,0a1.48,1.48,0,0,1,1.34,1.41,1.59,1.59,0,0,1-.93,1.72l-.36.17"/><path class="cls-1" d="M81.8,33.51v2.56a12.56,12.56,0,0,0,1.76-.32,1.11,1.11,0,0,0,.69-1.33,1,1,0,0,0-1-.9c-.46,0-.92,0-1.4,0m0,3.11v3.2h-.61v-7c.92.07,1.85.08,2.75.24a1.32,1.32,0,0,1,1,1.28A1.54,1.54,0,0,1,84.27,36a4.58,4.58,0,0,1-.5.27c.56,1.18,1.13,2.35,1.7,3.55-.54.21-.8,0-1-.43s-.47-1.11-.71-1.67c-.46-1.05-.76-1.21-2-1.05"/><path class="cls-1" d="M187,33c0,1.67,0,3.31,0,4.94a2.53,2.53,0,0,1-5-.06c-.06-1.61,0-3.23,0-4.9l.66,0v1c0,1.21,0,2.42,0,3.62a1.73,1.73,0,0,0,2,1.86,1.65,1.65,0,0,0,1.69-1.73c0-1.4,0-2.8,0-4.21,0-.46.12-.67.66-.49"/><path class="cls-1" d="M44.53,32.93h.61a1.88,1.88,0,0,1,.06.29c0,1.41,0,2.81,0,4.21a2.47,2.47,0,0,1-3.38,2.43A2,2,0,0,1,40.2,38c-.09-1.59-.07-3.19-.06-4.79,0-.14.3-.27.47-.41l.17.14c0,1.34,0,2.68,0,4a5,5,0,0,0,.11,1.16,1.86,1.86,0,0,0,3.5,0,4.08,4.08,0,0,0,.12-1.1c0-1.36,0-2.73,0-4.14"/><path class="cls-1" d="M198.16,36.21l3.64,3.59a1.12,1.12,0,0,1-1.25-.33c-.8-.88-1.65-1.72-2.48-2.58l-.5-.47v3.4l-.66,0V32.94l.63,0v3l.17.08c.87-.88,1.75-1.76,2.6-2.66a.94.94,0,0,1,1-.35l-3.19,3.28"/><path class="cls-1" d="M105.69,39.28c.81,0,1.59,0,2.37,0,.4,0,.54.13.39.55H105V32.9c1,0,2.08,0,3.11,0,.1,0,.19.18.29.27-.11.1-.21.29-.33.29-.78,0-1.56,0-2.39,0V36h2.51c0,.23,0,.39,0,.6h-2.54Z"/><path class="cls-1" d="M126,36.26c.85-.08,1.73.18,2.31-.62a1.52,1.52,0,0,0-.06-1.66c-.61-.76-1.44-.44-2.25-.49Zm0,.6v3l-.63,0v-7a18.83,18.83,0,0,1,2.75.28,1.7,1.7,0,0,1,1.07,2,1.83,1.83,0,0,1-1.71,1.64c-.46.05-.92.05-1.48.07"/><path class="cls-1" d="M224.75,36h2.54c0,.2,0,.36,0,.58h-2.57v2.71h2.8c0,.2,0,.35,0,.55h-3.49V32.91c1,0,2.11,0,3.18,0,.08,0,.16.28.3.55h-2.82Z"/><path class="cls-1" d="M58.21,32.9c-.05.29-.07.45-.09.57a15.72,15.72,0,0,0-1.65-.07,1.13,1.13,0,0,0-1.12.87,1.05,1.05,0,0,0,.59,1.22c.5.31,1,.57,1.52.88a1.86,1.86,0,0,1,1,2.21,2,2,0,0,1-2,1.37c-.59,0-1.18-.1-1.81-.15,0-.31,0-.5,0-.64a14.51,14.51,0,0,0,1.71.21,1.3,1.3,0,0,0,1.36-1c.17-.62,0-1-.68-1.45-.49-.32-1-.58-1.5-.9a1.64,1.64,0,0,1-.93-1.84,1.83,1.83,0,0,1,1.75-1.39c.57,0,1.15,0,1.77.08"/><path class="cls-1" d="M70,33.48v6.34h-.66V33.48c-.57,0-1.09,0-1.61,0s-.55-.13-.38-.59H70.5a10.25,10.25,0,0,1,1.11,0c.16,0,.3.19.44.29-.15.1-.3.26-.46.27-.51,0-1,0-1.62,0"/><path class="cls-1" d="M215,32.93c.15.44,0,.57-.4.56s-1,0-1.62,0v6.34h-.67V33.48c-.58,0-1.1,0-1.62,0s-.54-.13-.39-.56Z"/><rect class="cls-1" x="0.35" y="32.94" width="0.61" height="6.88"/><path class="cls-1" d="M94.64,32.94h.62v6.89l-.62,0Z"/><path class="cls-1" d="M112.36,39.79c.28-.49.56-1,.84-1.42l3-5.07c.17-.3.35-.52.77-.33-.06.14-.12.27-.19.4-1.21,2-2.43,4.05-3.63,6.08-.19.32-.38.52-.82.34"/><path class="cls-1" d="M114.64,39.75l1-1.7c.95-1.59,1.91-3.17,2.85-4.76.18-.31.36-.5.76-.32a3.92,3.92,0,0,1-.16.36c-1.23,2.05-2.46,4.11-3.7,6.16-.12.2-.39.31-.58.46l-.18-.2"/><path class="cls-1" d="M116.9,39.75c1.32-2.2,2.63-4.41,4-6.59.1-.17.38-.22.57-.32l.1.12c-.07.13-.12.27-.19.39-1.22,2-2.43,4.08-3.67,6.11-.13.21-.41.33-.62.49Z"/><path class="cls-1" d="M232.26,2.61a1.89,1.89,0,0,0-1.89-2,1.94,1.94,0,0,0-2,2,2,2,0,0,0,1.95,2,2,2,0,0,0,1.91-2M230.34.42a2.12,2.12,0,0,1,2.19,2.17,2.16,2.16,0,0,1-2.16,2.21,2.24,2.24,0,0,1-2.25-2.21A2.2,2.2,0,0,1,230.34.42"/><path class="cls-1" d="M230.44,2.56c.2-.18.54-.34.57-.55.05-.44-.34-.47-.69-.49s-.51.08-.52.45.18.52.64.59m.68,1.33a9.16,9.16,0,0,0-.61-.88,1.9,1.9,0,0,0-.5-.3,3.37,3.37,0,0,0-.2.49,4,4,0,0,0,0,.6h-.17c0-.13-.06-.25-.07-.38,0-.5,0-1,0-1.51,0-.19.13-.52.19-.52a5.5,5.5,0,0,1,1.41.16c.11,0,.2.47.14.67s-.34.39-.56.62l.55.93-.15.11"/></svg>