<svg id="Ebene_1" data-name="Ebene 1" xmlns="http://www.w3.org/2000/svg" viewBox="0 0 235.8 40"><defs><style>.cls-1{fill:#3073a8;}</style></defs><path class="cls-1" d="M216.68,34.55v0c3,0,5.92.05,8.89,0s3.82-.88,3.86-3.81c0-3.23,0-6.47,0-9.7,0-2.55-1.19-3.8-3.68-3.81q-8.88,0-17.78,0c-2.44,0-3.8,1.12-3.77,3.71q0,5,0,10c0,2.43,1.2,3.58,3.56,3.61,3,0,5.92,0,8.89,0m0,5.41c-3.42,0-6.84.1-10.26,0-5.57-.21-8.33-3-8.44-8.48-.09-3.78-.1-7.57,0-11.35.14-4.94,2.4-7.77,7.35-8,7.65-.36,15.34-.39,23,0,5.19.25,7.43,3.23,7.49,8.47,0,3.6,0,7.2,0,10.8-.06,5.5-2.77,8.36-8.31,8.58-3.6.15-7.21,0-10.82,0"/><path class="cls-1" d="M1,39.93a3.68,3.68,0,0,1,0-.79c1-4.55,1-4.55,5.62-4.55,5.83,0,11.66,0,17.48,0,2.23,0,3.87-.46,3.83-3.14s-1.78-3.06-3.94-3c-5,0-10,0-15,0C2.08,28.3-1.23,24,.42,17.37a6.3,6.3,0,0,1,4.45-4.88A9,9,0,0,1,7.3,12c8.39,0,16.79,0,25.48,0-.49,1.82-.94,3.48-1.42,5.29-7.16,0-14.18-.08-21.2.07a4.57,4.57,0,0,0-3.4,1.59C5.51,21,7,23,9.72,23c5.18.08,10.36,0,15.54,0,6.38.1,9,2.84,8.86,9C34,37,31.54,39.77,26.63,39.88c-8.5.18-17,0-25.68,0"/><polygon class="cls-1" points="77.69 11.92 83.77 11.92 83.77 22.61 105.23 22.61 105.23 12 111.62 12 111.62 39.82 105.5 39.82 105.5 28.37 83.84 28.37 83.84 39.84 77.69 39.84 77.69 11.92"/><path class="cls-1" d="M119.27,12h6.24v6.26c0,4.25,0,8.5,0,12.74,0,2.25,1,3.54,3.28,3.57q8.19.08,16.38,0c2.42,0,3.42-1.43,3.41-3.77,0-6.18,0-12.37,0-18.76h6.06c.06.78.18,1.57.19,2.36,0,5.82.07,11.64,0,17.46-.08,4.84-2.61,7.8-7.41,8-6.93.27-13.88.24-20.81,0-4.2-.14-7.09-2.75-7.25-6.67-.27-7-.07-14-.07-21.17"/><path class="cls-1" d="M71.63,11.87l-1.42,5.36c-6.16,0-12.24,0-18.33,0-4.85,0-5.45.61-5.45,5.39,0,2.68,0,5.35,0,8,.05,2.86,1,3.86,3.82,3.91,5.27.07,10.55,0,15.82,0,4.91,0,4.91,0,5.42,5.3-8,0-15.9.18-23.83-.07-4.8-.14-7.37-3.13-7.48-7.92-.09-3.69,0-7.39,0-11.08,0-5.77,2.48-8.67,8.29-8.88,7.57-.28,15.15-.07,23.17-.07"/><path class="cls-1" d="M193.09,39.87c-8,0-16.07.2-24.09-.08-4.57-.16-7.06-3.07-7.2-7.58-.13-4.24-.11-8.49,0-12.73.11-3.91,2.24-7,6-7.16,8.34-.38,16.72-.12,25.33-.12-.43,1.6-.87,3.18-1.37,5-6,0-12,0-18,0-5.35,0-5.78.46-5.78,5.88,0,2.4,0,4.8,0,7.2,0,3.35.86,4.22,4.3,4.25,5.09,0,10.17,0,15.26,0s5,0,5.51,5.28"/><path class="cls-1" d="M134.3,7.76c-.61-2.3-1.17-4.33-1.69-6.37a9,9,0,0,1-.12-1.22h9.17c-.53,2.22-1,4.41-1.63,6.54a2.23,2.23,0,0,1-1.63,1,37.3,37.3,0,0,1-4.1,0"/><path class="cls-1" d="M120.93.16c.53-.07.79-.12,1.06-.13,7.46-.15,7.5-.11,9,7.45-6.67.46-4.59,1.7-10-7.32"/><path class="cls-1" d="M142.93,7.43c.67-2.09,1.24-4.2,2.06-6.21A2.45,2.45,0,0,1,146.8.09c2-.14,4,0,6,0-1.83,6.42-4.37,8.34-9.92,7.39"/></svg>