<svg id="Ebene_1" data-name="Ebene 1" xmlns="http://www.w3.org/2000/svg" viewBox="0 0 109.51 86"><defs><style>.cls-1,.cls-2{fill:none;stroke:#3073a8;stroke-linecap:round;stroke-linejoin:round;}.cls-2{stroke-width:2px;}</style></defs><polyline class="cls-1" points="27 8.5 0.5 0.5 0.5 44"/><polyline class="cls-1" points="0.5 44 0.5 85.5 27.5 77.5"/><polyline class="cls-1" points="82.51 8.5 109.01 0.5 109.01 44"/><polyline class="cls-1" points="109.01 44 109.01 85.5 82.01 77.5"/><rect class="cls-2" x="32.31" y="8.38" width="44.88" height="70.71" rx="1"/><line class="cls-2" x1="54.75" y1="8.4" x2="54.75" y2="79.07"/><line class="cls-2" x1="32.33" y1="42.45" x2="77.18" y2="42.45"/><line class="cls-2" x1="32.28" y1="12.98" x2="77.23" y2="12.98"/><line class="cls-2" x1="32.28" y1="17.08" x2="77.23" y2="17.08"/><line class="cls-2" x1="32.28" y1="21.19" x2="77.23" y2="21.19"/><line class="cls-2" x1="32.28" y1="25.29" x2="77.23" y2="25.29"/><line class="cls-2" x1="32.28" y1="29.39" x2="77.23" y2="29.39"/><line class="cls-2" x1="32.28" y1="33.58" x2="77.23" y2="33.58"/><line class="cls-2" x1="32.28" y1="37.79" x2="77.23" y2="37.79"/></svg>