<svg id="Ebene_1" data-name="Ebene 1" xmlns="http://www.w3.org/2000/svg" viewBox="0 0 141.45 40"><defs><style>.cls-1{fill:#3073a8;}</style></defs><path class="cls-1" d="M8.49.48h5c1.1,0,2.21,0,3.31,0,.53,0,.72.18.84.67q1.23,5.22,2.5,10.42c.05.19.12.36.23.72.37-1.13.7-2.09,1-3,.87-2.7,1.75-5.4,2.6-8.11A.76.76,0,0,1,24.9.47c2.33,0,4.67,0,7,0a.82.82,0,0,1,.94.68c1.1,3.47,2.24,6.94,3.37,10.41.06.18.13.36.27.77.37-1.53.7-2.84,1-4.16.57-2.38,1.16-4.76,1.72-7.14.08-.35.19-.56.61-.56,2.75,0,5.51,0,8.26,0a1.94,1.94,0,0,1,.29.08c-.28,1-.54,2.08-.82,3.1-1.34,4.89-2.7,9.78-4,14.67a.87.87,0,0,1-1,.77q-5,0-10,0a.92.92,0,0,1-1-.77c-.9-2.87-1.84-5.73-2.76-8.6-.07-.21-.15-.41-.28-.8-.23.69-.42,1.22-.59,1.76-.83,2.56-1.67,5.12-2.47,7.69a.86.86,0,0,1-1,.71q-5.09,0-10.17,0a.78.78,0,0,1-.9-.71Q11,9.78,8.62,1.17c0-.19-.07-.38-.13-.69"/><path class="cls-1" d="M107.84.48c3,0,5.88,0,8.78,0,.59,0,.52.39.52.75,0,3.09,0,6.18,0,9.27a13.63,13.63,0,0,0,0,1.69,2.61,2.61,0,0,0,2.35,2.28,2.48,2.48,0,0,0,2.6-1.84,7,7,0,0,0,.24-1.88c0-3.09,0-6.18,0-9.27V.54h9.27a5.11,5.11,0,0,1,.07.66q0,5-.07,9.93a7.51,7.51,0,0,1-4.57,7.15,16.23,16.23,0,0,1-15.34-.35,7.33,7.33,0,0,1-3.93-6.79c0-3.4,0-6.81,0-10.22,0-.12,0-.24,0-.44"/><path class="cls-1" d="M62,8.11h7.39c1.09,0,1.25-.2.92-1.25a4.08,4.08,0,0,0-.54-1.11A4.47,4.47,0,0,0,65,4.27a4.29,4.29,0,0,0-3,3.84m0,3.22a3.38,3.38,0,0,0,1.57,2.92,8.34,8.34,0,0,0,5.25,1.35A21.6,21.6,0,0,0,76.67,14,1.75,1.75,0,0,1,77,14c0,.94,0,1.88,0,2.82,0,.19-.35.38-.56.52a15.47,15.47,0,0,1-6.7,2.28,24.41,24.41,0,0,1-9.36-.57A10.64,10.64,0,0,1,54,14.78a9.27,9.27,0,0,1,4.11-13.3A18.75,18.75,0,0,1,68,.13a11.31,11.31,0,0,1,6.92,3A9.83,9.83,0,0,1,78,10.68c0,.58-.27.66-.78.66-4.74,0-9.48,0-14.22,0Z"/><path class="cls-1" d="M84.57.48h5.66c.81,0,1.62,0,2.43,0,.44,0,.58.14.56.61,0,1.24,0,2.5,0,3.75,0,.17.15.34.24.52.12-.15.32-.28.37-.46,1-3.21,3.26-4.82,6.53-4.72.31,0,.66-.06.66.45V8.76a7,7,0,0,0-1.13,0A14.41,14.41,0,0,0,97,9.31c-2.42.91-3.4,2.81-3.36,5.32,0,1.45,0,2.89,0,4.41a5,5,0,0,1-.64.07c-2.61,0-5.21,0-7.81,0-.51,0-.68-.15-.68-.66q0-8.69,0-17.37c0-.16,0-.33.06-.61"/><path class="cls-1" d="M54.94,35a6.42,6.42,0,0,1,0-.88.82.82,0,0,0-.77-1,.92.92,0,0,0-1.17.73,9,9,0,0,0,0,2.32c.07.64.64.81,1.24.72a.8.8,0,0,0,.74-1,8.61,8.61,0,0,1,0-.88m0-2.54V29.79c1.16,0,1.16,0,1.16,1.12V37.8c-.29-.06-.63-.16-1-.22a.93.93,0,0,0-.46.1,2.06,2.06,0,0,1-3-1.39,5.13,5.13,0,0,1-.07-2.17C52,32.43,53.26,31.8,55,32.48"/><path class="cls-1" d="M29.74,34.45a4.89,4.89,0,0,0-.8-1.29,1.06,1.06,0,0,0-1,.09,3.62,3.62,0,0,0-.56,1.2Zm1,.89H27.31c.27.57.37,1.12.69,1.39.71.6,1.48.24,2.24-.21.14.23.28.44.44.69a2.91,2.91,0,0,1-3,.52,2.36,2.36,0,0,1-1.48-2.26,5.14,5.14,0,0,1,.14-1.66A2.2,2.2,0,0,1,29,32.16a2.12,2.12,0,0,1,1.76,2.13c0,.31,0,.63,0,1.05"/><path class="cls-1" d="M7.9,34.46l.21-.2a4.4,4.4,0,0,0-.83-1.14,1,1,0,0,0-1,.2,3.16,3.16,0,0,0-.44,1.14Zm1.35.87H6a1.29,1.29,0,0,0,.45,1.43c.76.54,1.48.2,2.22-.22l.42.58a2.52,2.52,0,0,1-4.28-.88,5.27,5.27,0,0,1,0-2.37,2.1,2.1,0,0,1,2.39-1.72,2,2,0,0,1,2,1.87,12,12,0,0,1,.12,1.31"/><path class="cls-1" d="M80,34.47c0-1-.38-1.47-1.08-1.42s-1,.58-.85,1.42Zm.71,2.12c.53.59.51.7-.18,1a2.58,2.58,0,0,1-3.87-2.29,5.1,5.1,0,0,1,.14-1.46,2.2,2.2,0,0,1,2.6-1.72,2,2,0,0,1,1.82,2.13c0,.32,0,.63,0,1H77.72a6.4,6.4,0,0,0,.76,1.43c.42.44,1,.34,2.19-.17"/><path class="cls-1" d="M84.12,37.73h-1.2V32.37c.37,0,1-.65,1.09.27a11.34,11.34,0,0,1,1.82-.47,1.05,1.05,0,0,1,1.25,1.06c.06,1.48,0,3,0,4.5H86c0-.33,0-.68,0-1,0-.88,0-1.76,0-2.64,0-.46,0-.93-.68-.91a1.17,1.17,0,0,0-1.16,1c0,1.17,0,2.35,0,3.6"/><path class="cls-1" d="M128.65,34.21c-.13-1.07-.69-1.49-1.56-1.1a3.31,3.31,0,0,0-.55.37c-.87.57-.86,1.54-1,2.4a2.33,2.33,0,0,0,0,1A3.36,3.36,0,0,0,127,37a1.65,1.65,0,0,0,.89-.8,17.58,17.58,0,0,0,.75-2m-2-4.4c-.15,1.1-.3,2.13-.44,3.13a9.66,9.66,0,0,1,1.43-.65,1.32,1.32,0,0,1,1.8,1.19,4.31,4.31,0,0,1-.9,3.37,2.86,2.86,0,0,1-3.77.65.81.81,0,0,1-.27-.68c.35-1.85.75-3.69,1.13-5.53a1.84,1.84,0,0,0,.06-.65c-.12-.6.17-.8,1-.83"/><path class="cls-1" d="M15.12,37.75H14V35.49c0-.44,0-.89,0-1.33s.05-1-.64-1a1.23,1.23,0,0,0-1.25,1.07c0,.59,0,1.18,0,1.77v1.73H10.89V32.35l.88-.23.23.5a11.17,11.17,0,0,1,1.79-.45,1.15,1.15,0,0,1,1.32,1.18c0,1.44,0,2.88,0,4.4"/><path class="cls-1" d="M46.75,32.71a7.23,7.23,0,0,1,1.35-.53,1.34,1.34,0,0,1,1.79,1.38c.06,1.37,0,2.74,0,4.16H48.72c0-1.15,0-2.27,0-3.39,0-.51.13-1.18-.71-1.18a1.17,1.17,0,0,0-1.17,1.28v3.28h-1.2V32.39c.35,0,.91-.67,1.12.32"/><path class="cls-1" d="M43.66,37.55l-.6.41-.51-.56a4.65,4.65,0,0,1-.92.46,1.66,1.66,0,0,1-2.33-1.74c0-1.18,0-2.35,0-3.53a1.09,1.09,0,0,1,.06-.25l1.12-.2c0,1.27,0,2.47,0,3.66,0,.88.23,1.23.8,1.22a1.14,1.14,0,0,0,1.11-1.26V32.35l1.26-.23Z"/><path class="cls-1" d="M1.21,37.74H0V30.29H3.88c.08.6,0,1-.77.94-.6-.05-1.21,0-1.86,0v2.1h2v1H1.21Z"/><path class="cls-1" d="M67.85,32.13c0,1.37,0,2.64,0,3.9,0,.34.39.94.57.92a2.71,2.71,0,0,0,1.23-.57c.13-.1.11-.46.11-.7,0-1.09,0-2.19,0-3.32L71,32.1v5.31l.2,0-.8.54c-.15-.22-.29-.41-.43-.6v.21a12.71,12.71,0,0,1-2,.28,1.2,1.2,0,0,1-1.17-1.27c0-1.39,0-2.78,0-4.25l1.14-.23"/><path class="cls-1" d="M16.59,37.3l.39-.77a7.77,7.77,0,0,0,.9.34A2.37,2.37,0,0,0,19,37a1.11,1.11,0,0,0,.69-.68c.05-.2-.28-.58-.53-.73a4.9,4.9,0,0,0-1.05-.28,1.47,1.47,0,0,1-1.24-1.5,1.66,1.66,0,0,1,1.3-1.65,3.43,3.43,0,0,1,2.53.36l-.3.78c-.4-.12-.76-.25-1.13-.33s-1,0-1.11.57.35.68.75.81c.21.07.42.11.64.16,1.06.3,1.47.77,1.43,1.65a1.82,1.82,0,0,1-1.63,1.72,3.74,3.74,0,0,1-2.71-.58"/><path class="cls-1" d="M63.42,37.74H62.15V31.22H60.26v-.93h5.12c0,.46.11.95-.6.93H63.42Z"/><path class="cls-1" d="M119.75,34.77a13.06,13.06,0,0,0,2-.31.84.84,0,1,0-.67-1.52,2.19,2.19,0,0,0-1.28,1.83m-.17.65c-.12.62-.18,1.22.38,1.57a1.92,1.92,0,0,0,2.18-.31c.4.43.42.51,0,.75a2.64,2.64,0,0,1-2.72.23,1.93,1.93,0,0,1-.84-2.17,3.46,3.46,0,0,1,2.29-3.2,1.53,1.53,0,1,1,.84,2.88,17.85,17.85,0,0,1-2.15.25"/><path class="cls-1" d="M131.93,34.45l.17.27a6.84,6.84,0,0,0,1.65-.19,1.74,1.74,0,0,0,.77-.87.73.73,0,0,0-.31-.64,1.62,1.62,0,0,0-1.16.07,7.45,7.45,0,0,0-1.12,1.36m2.67,2.38.2.3a2.81,2.81,0,0,1-2.55.74,1.54,1.54,0,0,1-1.36-1.36,3.75,3.75,0,0,1,1.39-3.74,3.34,3.34,0,0,1,1.61-.56,1.21,1.21,0,0,1,1.42.9,1.46,1.46,0,0,1-.73,1.82,11.1,11.1,0,0,1-1.92.41c-.34.07-.83-.22-.9.44s.24,1.34.82,1.35a11.63,11.63,0,0,0,2-.3"/><path class="cls-1" d="M100.18,32.37c-.27,1.3-.54,2.54-.79,3.79a1.74,1.74,0,0,0,0,.87c.22.56-.09.73-.56.95-.14-.33-.28-.64-.35-.79a12.72,12.72,0,0,1-2.13.72c-.75.11-1.21-.43-1.07-1.2.23-1.35.52-2.69.84-4,.06-.22.45-.35.69-.52l.17.16c-.25,1.23-.52,2.46-.74,3.7a4.68,4.68,0,0,0,.1,1.11,4.47,4.47,0,0,0,1.24-.22,2.16,2.16,0,0,0,1.22-1.72c.1-.75.3-1.49.47-2.23s.15-.65,1-.6"/><path class="cls-1" d="M24.91,37.1c.26.47.06.7-.43.79-1.24.23-1.9-.29-1.91-1.54,0-1,0-2,0-3a1.3,1.3,0,0,0,0-.19l-.81-.22.83-1c.11-1.14.11-1.14,1.27-1.22,0,.25,0,.49,0,.73s0,.48,0,.8l1.15.06c-.05.67-.05.67-1.19.9,0,1.08,0,2.18,0,3.27,0,.58.19.63,1.17.67"/><path class="cls-1" d="M136.56,37.69c.29-1.39.57-2.75.85-4.11a3,3,0,0,0,.08-.51c0-.59,0-.59.7-.87l.17.81a10.41,10.41,0,0,1,1.68-.73c1-.26,1.57.37,1.37,1.36-.27,1.34-.56,2.68-.86,4.07h-.84c.26-1.26.54-2.49.77-3.73a1.16,1.16,0,0,0-.19-.9c-.15-.14-.61-.07-.87.05A2.36,2.36,0,0,0,137.93,35c-.1.75-.32,1.49-.45,2.23-.09.51-.34.67-.92.48"/><path class="cls-1" d="M95.8,30.13l-.27.53c-1.41-.3-1.78,0-1.85,1.66H95a.59.59,0,0,1-.77.61c-.6-.1-.8.18-.9.73-.28,1.56-.6,3.12-.93,4.67A10.09,10.09,0,0,1,92,39.5c-.2.53-.5.64-.8.32.45-2.13.89-4.18,1.3-6.23,0-.2-.2-.44-.24-.68a1.11,1.11,0,0,1,.08-.54c.53,0,.46-.4.53-.72.35-1.63,1.37-2.18,2.94-1.52"/><path class="cls-1" d="M109.5,32.44c-.07.58-.25.68-.75.53a3.26,3.26,0,0,0-1.49,0,1,1,0,0,0-.53.68c0,.21.23.52.44.67a9.41,9.41,0,0,0,1.06.51,1.5,1.5,0,0,1,.18,2.67,3.41,3.41,0,0,1-3.49,0l.25-.63c.16,0,.27.09.38.11a9.57,9.57,0,0,0,1.91.18,1,1,0,0,0,.66-.72,1.42,1.42,0,0,0-.53-.92,5.31,5.31,0,0,0-1-.47,1.41,1.41,0,0,1,0-2.54,3.27,3.27,0,0,1,2.94-.05"/><path class="cls-1" d="M115,30.31h.88c-.47,2.24-.93,4.42-1.41,6.69h2.81l.15.2c-.2.19-.39.53-.6.54-1.09.06-2.19,0-3.41,0,.53-2.54,1-5,1.58-7.46"/><path class="cls-1" d="M32.42,37.72V32.36l.88-.24.28.56,1.76-.75c-.09.79-.07,1.27-.86,1.33-.62,0-.86.57-.85,1.19,0,1.07,0,2.15,0,3.27Z"/><path class="cls-1" d="M73,32.34l.85-.22c.11.23.22.44.28.56l1.75-.75c-.08.79,0,1.27-.84,1.33-.61.05-.87.56-.86,1.18,0,1.08,0,2.15,0,3.28H73Z"/><path class="cls-1" d="M101.38,37.69l.79-3.83a4.3,4.3,0,0,0,.1-.72c0-.65,0-.65.72-.93.08.3.15.6.2.82l1.79-1c.09.71,0,1-.68,1.14a1.9,1.9,0,0,0-1.46,1.49c-.21.82-.41,1.65-.54,2.5-.08.57-.35.68-.92.51"/><path class="cls-1" d="M70.19,30c.18.29.51.6.49.88a1,1,0,0,1-.65.68.59.59,0,0,1-.73-.68c0-.31.36-.59.55-.88h.34"/><path class="cls-1" d="M66.88,30.75c.27-.21.51-.55.81-.61a.59.59,0,0,1,.7.72,1,1,0,0,1-.63.7c-.26,0-.57-.29-.87-.46Z"/><path class="cls-1" d="M98.11,31c-.41.26-.65.54-.83.5a.79.79,0,0,1-.46-.59c0-.15.32-.47.49-.46s.42.27.8.55"/><path class="cls-1" d="M100.36,31c-.39.25-.64.53-.81.49a.75.75,0,0,1-.49-.56c0-.18.34-.48.54-.49s.4.28.76.56"/></svg>